<svg width="32" height="32" viewBox="0 0 32 32" fill="none" xmlns="http://www.w3.org/2000/svg">
<path d="M16.2057 7.94967C16.1605 5.90565 17.2907 1.65409 22.173 1C22.7154 2.63522 21.088 7.8134 16.2057 7.94967Z" fill="#A5C937"/>
<path d="M11.8659 7.94967C7.37187 7.94967 4 11.7465 4 16.262C4 18.942 5.05784 25.2012 9.28914 28.7987C9.35973 28.8483 9.42923 28.8976 9.49784 28.9463C10.7474 29.8325 11.7076 30.5134 13.7646 29.48C14.6616 29.0294 15.4942 28.8582 16.5448 28.8798C17.5953 28.8582 18.428 29.0294 19.325 29.48C21.3819 30.5134 22.3421 29.8325 23.5917 28.9463C23.6313 28.9182 23.6711 28.89 23.7113 28.8615C23.7408 28.8407 23.7705 28.8197 23.8004 28.7987C25.8881 27.0237 27.2033 24.6007 28 22.2794C25.8345 21.217 24.3429 18.9827 24.3429 16.3983C24.3429 14.1107 25.5116 12.0974 27.2818 10.9284C25.8635 9.11763 23.7161 7.94967 21.2236 7.94967C20.7263 7.99509 19.5691 8.1677 18.9181 8.49475C18.1044 8.90355 16.9516 9.17609 16.5448 9.17609C16.1379 9.17609 14.9851 8.90355 14.1714 8.49475C13.5204 8.1677 12.3632 7.99509 11.8659 7.94967Z" fill="#A5C937"/>
</svg>
