<svg width="172" height="80" viewBox="0 0 172 80" fill="none" xmlns="http://www.w3.org/2000/svg">
<g filter="url(#filter0_d_1_22301)">
<rect x="11" y="1" width="150" height="58" rx="4" fill="white"/>
<rect x="11" y="1" width="150" height="58" rx="4" stroke="#A5C937"/>
<path d="M41.2057 21.9497C41.1605 19.9057 42.2907 15.6541 47.173 15C47.7154 16.6352 46.088 21.8134 41.2057 21.9497Z" fill="#A5C937"/>
<path d="M36.8659 21.9497C32.3719 21.9497 29 25.7465 29 30.262C29 32.942 30.0578 39.2012 34.2891 42.7987C34.3597 42.8483 34.4292 42.8976 34.4978 42.9463C35.7474 43.8325 36.7076 44.5134 38.7646 43.48C39.6616 43.0294 40.4942 42.8582 41.5448 42.8798C42.5953 42.8582 43.428 43.0294 44.325 43.48C46.3819 44.5134 47.3421 43.8325 48.5917 42.9463C48.6313 42.9182 48.6711 42.89 48.7113 42.8615C48.7408 42.8407 48.7705 42.8197 48.8004 42.7987C50.8881 41.0237 52.2033 38.6007 53 36.2794C50.8345 35.217 49.3429 32.9827 49.3429 30.3983C49.3429 28.1107 50.5116 26.0974 52.2818 24.9284C50.8635 23.1176 48.7161 21.9497 46.2236 21.9497C45.7263 21.9951 44.5691 22.1677 43.9181 22.4947C43.1044 22.9035 41.9516 23.1761 41.5448 23.1761C41.1379 23.1761 39.9851 22.9035 39.1714 22.4947C38.5204 22.1677 37.3632 21.9951 36.8659 21.9497Z" fill="#A5C937"/>
<path d="M73.655 17.555C73.4423 17.1077 73.1343 16.763 72.731 16.521C72.3277 16.2717 71.8583 16.147 71.323 16.147C70.7877 16.147 70.3037 16.2717 69.871 16.521C69.4457 16.763 69.1083 17.115 68.859 17.577C68.617 18.0317 68.496 18.5597 68.496 19.161C68.496 19.7623 68.617 20.2903 68.859 20.745C69.1083 21.1997 69.4457 21.5517 69.871 21.801C70.3037 22.043 70.7877 22.164 71.323 22.164C72.071 22.164 72.687 21.9403 73.171 21.493C73.655 21.0457 73.9373 20.4407 74.018 19.678H70.96V18.864H75.085V19.634C75.0263 20.2647 74.8283 20.844 74.491 21.372C74.1537 21.8927 73.71 22.307 73.16 22.615C72.61 22.9157 71.9977 23.066 71.323 23.066C70.6117 23.066 69.9627 22.901 69.376 22.571C68.7893 22.2337 68.3237 21.768 67.979 21.174C67.6417 20.58 67.473 19.909 67.473 19.161C67.473 18.413 67.6417 17.742 67.979 17.148C68.3237 16.5467 68.7893 16.081 69.376 15.751C69.9627 15.4137 70.6117 15.245 71.323 15.245C72.137 15.245 72.8557 15.4467 73.479 15.85C74.1097 16.2533 74.568 16.8217 74.854 17.555H73.655ZM81.9085 19.755C81.9085 19.9457 81.8975 20.1473 81.8755 20.36H77.0575C77.0942 20.954 77.2959 21.4197 77.6625 21.757C78.0365 22.087 78.4875 22.252 79.0155 22.252C79.4482 22.252 79.8075 22.153 80.0935 21.955C80.3869 21.7497 80.5922 21.4783 80.7095 21.141H81.7875C81.6262 21.7203 81.3035 22.1933 80.8195 22.56C80.3355 22.9193 79.7342 23.099 79.0155 23.099C78.4435 23.099 77.9302 22.9707 77.4755 22.714C77.0282 22.4573 76.6762 22.0943 76.4195 21.625C76.1629 21.1483 76.0345 20.5983 76.0345 19.975C76.0345 19.3517 76.1592 18.8053 76.4085 18.336C76.6579 17.8667 77.0062 17.5073 77.4535 17.258C77.9082 17.0013 78.4289 16.873 79.0155 16.873C79.5875 16.873 80.0935 16.9977 80.5335 17.247C80.9735 17.4963 81.3109 17.841 81.5455 18.281C81.7875 18.7137 81.9085 19.205 81.9085 19.755ZM80.8745 19.546C80.8745 19.1647 80.7902 18.8383 80.6215 18.567C80.4529 18.2883 80.2219 18.0793 79.9285 17.94C79.6425 17.7933 79.3235 17.72 78.9715 17.72C78.4655 17.72 78.0329 17.8813 77.6735 18.204C77.3215 18.5267 77.1199 18.974 77.0685 19.546H80.8745ZM84.4508 17.797V21.35C84.4508 21.6433 84.5131 21.8523 84.6378 21.977C84.7625 22.0943 84.9788 22.153 85.2868 22.153H86.0238V23H85.1218C84.5645 23 84.1465 22.8717 83.8678 22.615C83.5891 22.3583 83.4498 21.9367 83.4498 21.35V17.797H82.6688V16.972H83.4498V15.454H84.4508V16.972H86.0238V17.797H84.4508ZM90.6863 15.993C90.4956 15.993 90.3343 15.927 90.2023 15.795C90.0703 15.663 90.0043 15.5017 90.0043 15.311C90.0043 15.1203 90.0703 14.959 90.2023 14.827C90.3343 14.695 90.4956 14.629 90.6863 14.629C90.8696 14.629 91.0236 14.695 91.1483 14.827C91.2803 14.959 91.3463 15.1203 91.3463 15.311C91.3463 15.5017 91.2803 15.663 91.1483 15.795C91.0236 15.927 90.8696 15.993 90.6863 15.993ZM91.1703 16.972V23H90.1693V16.972H91.1703ZM94.0973 17.797V21.35C94.0973 21.6433 94.1596 21.8523 94.2843 21.977C94.409 22.0943 94.6253 22.153 94.9333 22.153H95.6703V23H94.7683C94.211 23 93.793 22.8717 93.5143 22.615C93.2356 22.3583 93.0963 21.9367 93.0963 21.35V17.797H92.3153V16.972H93.0963V15.454H94.0973V16.972H95.6703V17.797H94.0973ZM102.445 23.099C101.88 23.099 101.367 22.9707 100.905 22.714C100.45 22.4573 100.091 22.0943 99.8268 21.625C99.5701 21.1483 99.4418 20.5983 99.4418 19.975C99.4418 19.359 99.5738 18.8163 99.8378 18.347C100.109 17.8703 100.476 17.5073 100.938 17.258C101.4 17.0013 101.917 16.873 102.489 16.873C103.061 16.873 103.578 17.0013 104.04 17.258C104.502 17.5073 104.865 17.8667 105.129 18.336C105.4 18.8053 105.536 19.3517 105.536 19.975C105.536 20.5983 105.396 21.1483 105.118 21.625C104.846 22.0943 104.476 22.4573 104.007 22.714C103.537 22.9707 103.017 23.099 102.445 23.099ZM102.445 22.219C102.804 22.219 103.141 22.1347 103.457 21.966C103.772 21.7973 104.025 21.5443 104.216 21.207C104.414 20.8697 104.513 20.459 104.513 19.975C104.513 19.491 104.417 19.0803 104.227 18.743C104.036 18.4057 103.787 18.1563 103.479 17.995C103.171 17.8263 102.837 17.742 102.478 17.742C102.111 17.742 101.774 17.8263 101.466 17.995C101.165 18.1563 100.923 18.4057 100.74 18.743C100.556 19.0803 100.465 19.491 100.465 19.975C100.465 20.4663 100.553 20.8807 100.729 21.218C100.912 21.5553 101.154 21.8083 101.455 21.977C101.755 22.1383 102.085 22.219 102.445 22.219ZM109.789 16.862C110.522 16.862 111.116 17.0857 111.571 17.533C112.026 17.973 112.253 18.611 112.253 19.447V23H111.263V19.59C111.263 18.9887 111.113 18.5303 110.812 18.215C110.511 17.8923 110.101 17.731 109.58 17.731C109.052 17.731 108.63 17.896 108.315 18.226C108.007 18.556 107.853 19.0363 107.853 19.667V23H106.852V16.972H107.853V17.83C108.051 17.522 108.319 17.2837 108.656 17.115C109.001 16.9463 109.378 16.862 109.789 16.862Z" fill="black"/>
<path d="M73.958 41.138H70.066L69.422 43H67.364L70.878 33.214H73.16L76.674 43H74.602L73.958 41.138ZM73.426 39.57L72.012 35.482L70.598 39.57H73.426ZM79.9475 36.364C80.1995 36.0093 80.5448 35.7153 80.9835 35.482C81.4315 35.2393 81.9402 35.118 82.5095 35.118C83.1722 35.118 83.7695 35.2813 84.3015 35.608C84.8428 35.9347 85.2675 36.4013 85.5755 37.008C85.8928 37.6053 86.0515 38.3007 86.0515 39.094C86.0515 39.8873 85.8928 40.592 85.5755 41.208C85.2675 41.8147 84.8428 42.286 84.3015 42.622C83.7695 42.958 83.1722 43.126 82.5095 43.126C81.9402 43.126 81.4362 43.0093 80.9975 42.776C80.5682 42.5427 80.2182 42.2487 79.9475 41.894V46.696H77.9875V35.244H79.9475V36.364ZM84.0495 39.094C84.0495 38.6273 83.9515 38.226 83.7555 37.89C83.5688 37.5447 83.3168 37.2833 82.9995 37.106C82.6915 36.9287 82.3555 36.84 81.9915 36.84C81.6368 36.84 81.3008 36.9333 80.9835 37.12C80.6755 37.2973 80.4235 37.5587 80.2275 37.904C80.0408 38.2493 79.9475 38.6553 79.9475 39.122C79.9475 39.5887 80.0408 39.9947 80.2275 40.34C80.4235 40.6853 80.6755 40.9513 80.9835 41.138C81.3008 41.3153 81.6368 41.404 81.9915 41.404C82.3555 41.404 82.6915 41.3107 82.9995 41.124C83.3168 40.9373 83.5688 40.6713 83.7555 40.326C83.9515 39.9807 84.0495 39.57 84.0495 39.094ZM89.4358 36.364C89.6878 36.0093 90.0331 35.7153 90.4718 35.482C90.9198 35.2393 91.4284 35.118 91.9978 35.118C92.6604 35.118 93.2578 35.2813 93.7898 35.608C94.3311 35.9347 94.7558 36.4013 95.0638 37.008C95.3811 37.6053 95.5398 38.3007 95.5398 39.094C95.5398 39.8873 95.3811 40.592 95.0638 41.208C94.7558 41.8147 94.3311 42.286 93.7898 42.622C93.2578 42.958 92.6604 43.126 91.9978 43.126C91.4284 43.126 90.9244 43.0093 90.4858 42.776C90.0564 42.5427 89.7064 42.2487 89.4358 41.894V46.696H87.4758V35.244H89.4358V36.364ZM93.5378 39.094C93.5378 38.6273 93.4398 38.226 93.2438 37.89C93.0571 37.5447 92.8051 37.2833 92.4878 37.106C92.1798 36.9287 91.8438 36.84 91.4798 36.84C91.1251 36.84 90.7891 36.9333 90.4718 37.12C90.1638 37.2973 89.9118 37.5587 89.7158 37.904C89.5291 38.2493 89.4358 38.6553 89.4358 39.122C89.4358 39.5887 89.5291 39.9947 89.7158 40.34C89.9118 40.6853 90.1638 40.9513 90.4718 41.138C90.7891 41.3153 91.1251 41.404 91.4798 41.404C91.8438 41.404 92.1798 41.3107 92.4878 41.124C92.8051 40.9373 93.0571 40.6713 93.2438 40.326C93.4398 39.9807 93.5378 39.57 93.5378 39.094ZM103.674 43.098C102.993 43.098 102.377 42.9813 101.826 42.748C101.285 42.5147 100.855 42.1787 100.538 41.74C100.221 41.3013 100.057 40.7833 100.048 40.186H102.148C102.176 40.5873 102.316 40.9047 102.568 41.138C102.829 41.3713 103.184 41.488 103.632 41.488C104.089 41.488 104.449 41.3807 104.71 41.166C104.971 40.942 105.102 40.6527 105.102 40.298C105.102 40.0087 105.013 39.7707 104.836 39.584C104.659 39.3973 104.435 39.2527 104.164 39.15C103.903 39.038 103.539 38.9167 103.072 38.786C102.437 38.5993 101.919 38.4173 101.518 38.24C101.126 38.0533 100.785 37.778 100.496 37.414C100.216 37.0407 100.076 36.546 100.076 35.93C100.076 35.3513 100.221 34.8473 100.51 34.418C100.799 33.9887 101.205 33.662 101.728 33.438C102.251 33.2047 102.848 33.088 103.52 33.088C104.528 33.088 105.345 33.3353 105.97 33.83C106.605 34.3153 106.955 34.9967 107.02 35.874H104.864C104.845 35.538 104.701 35.2627 104.43 35.048C104.169 34.824 103.819 34.712 103.38 34.712C102.997 34.712 102.689 34.81 102.456 35.006C102.232 35.202 102.12 35.4867 102.12 35.86C102.12 36.1213 102.204 36.3407 102.372 36.518C102.549 36.686 102.764 36.826 103.016 36.938C103.277 37.0407 103.641 37.162 104.108 37.302C104.743 37.4887 105.261 37.6753 105.662 37.862C106.063 38.0487 106.409 38.3287 106.698 38.702C106.987 39.0753 107.132 39.5653 107.132 40.172C107.132 40.6947 106.997 41.18 106.726 41.628C106.455 42.076 106.059 42.4353 105.536 42.706C105.013 42.9673 104.393 43.098 103.674 43.098ZM111.113 36.854V40.606C111.113 40.8673 111.174 41.0587 111.295 41.18C111.426 41.292 111.641 41.348 111.939 41.348H112.849V43H111.617C109.965 43 109.139 42.1973 109.139 40.592V36.854H108.215V35.244H109.139V33.326H111.113V35.244H112.849V36.854H111.113ZM117.703 43.126C116.956 43.126 116.284 42.9627 115.687 42.636C115.09 42.3 114.618 41.8287 114.273 41.222C113.937 40.6153 113.769 39.9153 113.769 39.122C113.769 38.3287 113.942 37.6287 114.287 37.022C114.642 36.4153 115.122 35.9487 115.729 35.622C116.336 35.286 117.012 35.118 117.759 35.118C118.506 35.118 119.182 35.286 119.789 35.622C120.396 35.9487 120.872 36.4153 121.217 37.022C121.572 37.6287 121.749 38.3287 121.749 39.122C121.749 39.9153 121.567 40.6153 121.203 41.222C120.848 41.8287 120.363 42.3 119.747 42.636C119.14 42.9627 118.459 43.126 117.703 43.126ZM117.703 41.418C118.058 41.418 118.389 41.334 118.697 41.166C119.014 40.9887 119.266 40.7273 119.453 40.382C119.64 40.0367 119.733 39.6167 119.733 39.122C119.733 38.3847 119.537 37.82 119.145 37.428C118.762 37.0267 118.291 36.826 117.731 36.826C117.171 36.826 116.7 37.0267 116.317 37.428C115.944 37.82 115.757 38.3847 115.757 39.122C115.757 39.8593 115.939 40.4287 116.303 40.83C116.676 41.222 117.143 41.418 117.703 41.418ZM125.147 36.448C125.399 36.0373 125.725 35.7153 126.127 35.482C126.537 35.2487 127.004 35.132 127.527 35.132V37.19H127.009C126.393 37.19 125.926 37.3347 125.609 37.624C125.301 37.9133 125.147 38.4173 125.147 39.136V43H123.187V35.244H125.147V36.448ZM136.057 38.954C136.057 39.234 136.038 39.486 136.001 39.71H130.331C130.378 40.27 130.574 40.7087 130.919 41.026C131.264 41.3433 131.689 41.502 132.193 41.502C132.921 41.502 133.439 41.1893 133.747 40.564H135.861C135.637 41.3107 135.208 41.9267 134.573 42.412C133.938 42.888 133.159 43.126 132.235 43.126C131.488 43.126 130.816 42.9627 130.219 42.636C129.631 42.3 129.169 41.8287 128.833 41.222C128.506 40.6153 128.343 39.9153 128.343 39.122C128.343 38.3193 128.506 37.6147 128.833 37.008C129.16 36.4013 129.617 35.9347 130.205 35.608C130.793 35.2813 131.47 35.118 132.235 35.118C132.972 35.118 133.63 35.2767 134.209 35.594C134.797 35.9113 135.25 36.364 135.567 36.952C135.894 37.5307 136.057 38.198 136.057 38.954ZM134.027 38.394C134.018 37.89 133.836 37.4887 133.481 37.19C133.126 36.882 132.692 36.728 132.179 36.728C131.694 36.728 131.283 36.8773 130.947 37.176C130.62 37.4653 130.42 37.8713 130.345 38.394H134.027Z" fill="black"/>
</g>
<defs>
<filter id="filter0_d_1_22301" x="0.5" y="0.5" width="171" height="79" filterUnits="userSpaceOnUse" color-interpolation-filters="sRGB">
<feFlood flood-opacity="0" result="BackgroundImageFix"/>
<feColorMatrix in="SourceAlpha" type="matrix" values="0 0 0 0 0 0 0 0 0 0 0 0 0 0 0 0 0 0 127 0" result="hardAlpha"/>
<feOffset dy="10"/>
<feGaussianBlur stdDeviation="5"/>
<feComposite in2="hardAlpha" operator="out"/>
<feColorMatrix type="matrix" values="0 0 0 0 0.121569 0 0 0 0 0.713726 0 0 0 0 0.371812 0 0 0 0.04 0"/>
<feBlend mode="normal" in2="BackgroundImageFix" result="effect1_dropShadow_1_22301"/>
<feBlend mode="normal" in="SourceGraphic" in2="effect1_dropShadow_1_22301" result="shape"/>
</filter>
</defs>
</svg>
