<svg width="32" height="32" viewBox="0 0 32 32" fill="none" xmlns="http://www.w3.org/2000/svg">
<g filter="url(#filter0_d_464_28)">
<path fill-rule="evenodd" clip-rule="evenodd" d="M16 4C10.8454 4 6.66669 8.17868 6.66669 13.3333C6.66669 16.7392 8.49098 19.719 11.2157 21.3488C11.3265 21.3386 11.44 21.3333 11.5556 21.3333H14.6667V17.3333H13.3334C12.597 17.3333 12 16.7364 12 16C12 15.2636 12.597 14.6667 13.3334 14.6667H16H18.6667C19.4031 14.6667 20 15.2636 20 16C20 16.7364 19.4031 17.3333 18.6667 17.3333H17.3334V21.3333H20.4445C20.56 21.3333 20.6735 21.3386 20.7843 21.3488C23.5091 19.719 25.3334 16.7392 25.3334 13.3333C25.3334 8.17868 21.1547 4 16 4ZM12 25.3333L12 24L20 24V25.3333C20 26.8061 18.8061 28 17.3334 28H14.6667C13.1939 28 12 26.8061 12 25.3333Z" fill="white"/>
</g>
<defs>
<filter id="filter0_d_464_28" x="4.66669" y="3" width="22.6667" height="28" filterUnits="userSpaceOnUse" color-interpolation-filters="sRGB">
<feFlood flood-opacity="0" result="BackgroundImageFix"/>
<feColorMatrix in="SourceAlpha" type="matrix" values="0 0 0 0 0 0 0 0 0 0 0 0 0 0 0 0 0 0 127 0" result="hardAlpha"/>
<feOffset dy="1"/>
<feGaussianBlur stdDeviation="1"/>
<feComposite in2="hardAlpha" operator="out"/>
<feColorMatrix type="matrix" values="0 0 0 0 0.0627451 0 0 0 0 0.0941176 0 0 0 0 0.156863 0 0 0 0.04 0"/>
<feBlend mode="normal" in2="BackgroundImageFix" result="effect1_dropShadow_464_28"/>
<feBlend mode="normal" in="SourceGraphic" in2="effect1_dropShadow_464_28" result="shape"/>
</filter>
</defs>
</svg>
