<svg width="17" height="17" viewBox="0 0 17 17" fill="none" xmlns="http://www.w3.org/2000/svg">
<path d="M16.3599 8.38965C16.3599 12.6709 12.8911 16.1396 8.60989 16.1396C4.32864 16.1396 0.859891 12.6709 0.859891 8.38965C0.859891 4.1084 4.32864 0.639648 8.60989 0.639648C12.8911 0.639648 16.3599 4.1084 16.3599 8.38965ZM2.35989 8.38965C2.35989 11.8584 5.14114 14.6396 8.60989 14.6396C12.0474 14.6396 14.8599 11.8584 14.8599 8.38965C14.8599 4.95215 12.0474 2.13965 8.60989 2.13965C5.14114 2.13965 2.35989 4.95215 2.35989 8.38965ZM4.60989 9.01465V7.76465C4.60989 7.57715 4.76614 7.38965 4.98489 7.38965H8.60989V5.2959C8.60989 4.9834 8.98489 4.7959 9.23489 5.0459L12.3286 8.13965C12.4849 8.2959 12.4849 8.51465 12.3286 8.6709L9.23489 11.7646C8.98489 12.0146 8.60989 11.8271 8.60989 11.4834V9.38965H4.98489C4.76614 9.38965 4.60989 9.2334 4.60989 9.01465Z" fill="#001038"/>
</svg>
