<svg width="187" height="80" viewBox="0 0 187 80" fill="none" xmlns="http://www.w3.org/2000/svg">
<g filter="url(#filter0_d_1_22306)">
<rect x="11" y="1" width="165" height="58" rx="4" fill="white"/>
<rect x="11" y="1" width="165" height="58" rx="4" stroke="#A5C937"/>
<path d="M47.6269 26.1241L44.6137 29.3828L33.0784 17.4655L47.6269 26.1241Z" fill="#A5C937"/>
<path d="M30.5848 43.7201C30.0041 44.3139 29 43.9002 29 43.0671V17.9329C29 17.1014 30.0009 16.6869 30.5826 17.2776L42.9152 29.8018C43.2717 30.1638 43.2727 30.7469 42.9174 31.1102L30.5848 43.7201Z" fill="#A5C937"/>
<path d="M49.1791 26.9621L52.1923 28.731C53.2711 29.8412 53.2674 30.9689 52.1923 32.0828L49.1791 33.8207L45.7399 30.4379L49.1791 26.9621Z" fill="#A5C937"/>
<path d="M47.7486 34.8448L44.5833 31.5862L32.9263 43.4724L47.7486 34.8448Z" fill="#A5C937"/>
<path d="M73.655 17.555C73.4423 17.1077 73.1343 16.763 72.731 16.521C72.3277 16.2717 71.8583 16.147 71.323 16.147C70.7877 16.147 70.3037 16.2717 69.871 16.521C69.4457 16.763 69.1083 17.115 68.859 17.577C68.617 18.0317 68.496 18.5597 68.496 19.161C68.496 19.7623 68.617 20.2903 68.859 20.745C69.1083 21.1997 69.4457 21.5517 69.871 21.801C70.3037 22.043 70.7877 22.164 71.323 22.164C72.071 22.164 72.687 21.9403 73.171 21.493C73.655 21.0457 73.9373 20.4407 74.018 19.678H70.96V18.864H75.085V19.634C75.0263 20.2647 74.8283 20.844 74.491 21.372C74.1537 21.8927 73.71 22.307 73.16 22.615C72.61 22.9157 71.9977 23.066 71.323 23.066C70.6117 23.066 69.9627 22.901 69.376 22.571C68.7893 22.2337 68.3237 21.768 67.979 21.174C67.6417 20.58 67.473 19.909 67.473 19.161C67.473 18.413 67.6417 17.742 67.979 17.148C68.3237 16.5467 68.7893 16.081 69.376 15.751C69.9627 15.4137 70.6117 15.245 71.323 15.245C72.137 15.245 72.8557 15.4467 73.479 15.85C74.1097 16.2533 74.568 16.8217 74.854 17.555H73.655ZM81.9085 19.755C81.9085 19.9457 81.8975 20.1473 81.8755 20.36H77.0575C77.0942 20.954 77.2959 21.4197 77.6625 21.757C78.0365 22.087 78.4875 22.252 79.0155 22.252C79.4482 22.252 79.8075 22.153 80.0935 21.955C80.3869 21.7497 80.5922 21.4783 80.7095 21.141H81.7875C81.6262 21.7203 81.3035 22.1933 80.8195 22.56C80.3355 22.9193 79.7342 23.099 79.0155 23.099C78.4435 23.099 77.9302 22.9707 77.4755 22.714C77.0282 22.4573 76.6762 22.0943 76.4195 21.625C76.1629 21.1483 76.0345 20.5983 76.0345 19.975C76.0345 19.3517 76.1592 18.8053 76.4085 18.336C76.6579 17.8667 77.0062 17.5073 77.4535 17.258C77.9082 17.0013 78.4289 16.873 79.0155 16.873C79.5875 16.873 80.0935 16.9977 80.5335 17.247C80.9735 17.4963 81.3109 17.841 81.5455 18.281C81.7875 18.7137 81.9085 19.205 81.9085 19.755ZM80.8745 19.546C80.8745 19.1647 80.7902 18.8383 80.6215 18.567C80.4529 18.2883 80.2219 18.0793 79.9285 17.94C79.6425 17.7933 79.3235 17.72 78.9715 17.72C78.4655 17.72 78.0329 17.8813 77.6735 18.204C77.3215 18.5267 77.1199 18.974 77.0685 19.546H80.8745ZM84.4508 17.797V21.35C84.4508 21.6433 84.5131 21.8523 84.6378 21.977C84.7625 22.0943 84.9788 22.153 85.2868 22.153H86.0238V23H85.1218C84.5645 23 84.1465 22.8717 83.8678 22.615C83.5891 22.3583 83.4498 21.9367 83.4498 21.35V17.797H82.6688V16.972H83.4498V15.454H84.4508V16.972H86.0238V17.797H84.4508ZM90.6863 15.993C90.4956 15.993 90.3343 15.927 90.2023 15.795C90.0703 15.663 90.0043 15.5017 90.0043 15.311C90.0043 15.1203 90.0703 14.959 90.2023 14.827C90.3343 14.695 90.4956 14.629 90.6863 14.629C90.8696 14.629 91.0236 14.695 91.1483 14.827C91.2803 14.959 91.3463 15.1203 91.3463 15.311C91.3463 15.5017 91.2803 15.663 91.1483 15.795C91.0236 15.927 90.8696 15.993 90.6863 15.993ZM91.1703 16.972V23H90.1693V16.972H91.1703ZM94.0973 17.797V21.35C94.0973 21.6433 94.1596 21.8523 94.2843 21.977C94.409 22.0943 94.6253 22.153 94.9333 22.153H95.6703V23H94.7683C94.211 23 93.793 22.8717 93.5143 22.615C93.2356 22.3583 93.0963 21.9367 93.0963 21.35V17.797H92.3153V16.972H93.0963V15.454H94.0973V16.972H95.6703V17.797H94.0973ZM102.445 23.099C101.88 23.099 101.367 22.9707 100.905 22.714C100.45 22.4573 100.091 22.0943 99.8268 21.625C99.5701 21.1483 99.4418 20.5983 99.4418 19.975C99.4418 19.359 99.5738 18.8163 99.8378 18.347C100.109 17.8703 100.476 17.5073 100.938 17.258C101.4 17.0013 101.917 16.873 102.489 16.873C103.061 16.873 103.578 17.0013 104.04 17.258C104.502 17.5073 104.865 17.8667 105.129 18.336C105.4 18.8053 105.536 19.3517 105.536 19.975C105.536 20.5983 105.396 21.1483 105.118 21.625C104.846 22.0943 104.476 22.4573 104.007 22.714C103.537 22.9707 103.017 23.099 102.445 23.099ZM102.445 22.219C102.804 22.219 103.141 22.1347 103.457 21.966C103.772 21.7973 104.025 21.5443 104.216 21.207C104.414 20.8697 104.513 20.459 104.513 19.975C104.513 19.491 104.417 19.0803 104.227 18.743C104.036 18.4057 103.787 18.1563 103.479 17.995C103.171 17.8263 102.837 17.742 102.478 17.742C102.111 17.742 101.774 17.8263 101.466 17.995C101.165 18.1563 100.923 18.4057 100.74 18.743C100.556 19.0803 100.465 19.491 100.465 19.975C100.465 20.4663 100.553 20.8807 100.729 21.218C100.912 21.5553 101.154 21.8083 101.455 21.977C101.755 22.1383 102.085 22.219 102.445 22.219ZM109.789 16.862C110.522 16.862 111.116 17.0857 111.571 17.533C112.026 17.973 112.253 18.611 112.253 19.447V23H111.263V19.59C111.263 18.9887 111.113 18.5303 110.812 18.215C110.511 17.8923 110.101 17.731 109.58 17.731C109.052 17.731 108.63 17.896 108.315 18.226C108.007 18.556 107.853 19.0363 107.853 19.667V23H106.852V16.972H107.853V17.83C108.051 17.522 108.319 17.2837 108.656 17.115C109.001 16.9463 109.378 16.862 109.789 16.862Z" fill="black"/>
<path d="M74.77 36.168C74.546 35.7573 74.238 35.4447 73.846 35.23C73.454 35.0153 72.9967 34.908 72.474 34.908C71.8953 34.908 71.382 35.0387 70.934 35.3C70.486 35.5613 70.136 35.9347 69.884 36.42C69.632 36.9053 69.506 37.4653 69.506 38.1C69.506 38.7533 69.632 39.3227 69.884 39.808C70.1453 40.2933 70.5047 40.6667 70.962 40.928C71.4193 41.1893 71.9513 41.32 72.558 41.32C73.3047 41.32 73.916 41.124 74.392 40.732C74.868 40.3307 75.1807 39.7753 75.33 39.066H71.97V37.568H77.262V39.276C77.1313 39.9573 76.8513 40.5873 76.422 41.166C75.9927 41.7447 75.4373 42.2113 74.756 42.566C74.084 42.9113 73.328 43.084 72.488 43.084C71.5453 43.084 70.6913 42.874 69.926 42.454C69.17 42.0247 68.5727 41.432 68.134 40.676C67.7047 39.92 67.49 39.0613 67.49 38.1C67.49 37.1387 67.7047 36.28 68.134 35.524C68.5727 34.7587 69.17 34.166 69.926 33.746C70.6913 33.3167 71.5407 33.102 72.474 33.102C73.5753 33.102 74.532 33.3727 75.344 33.914C76.156 34.446 76.716 35.1973 77.024 36.168H74.77ZM82.1561 43.126C81.4094 43.126 80.7374 42.9627 80.1401 42.636C79.5428 42.3 79.0714 41.8287 78.7261 41.222C78.3901 40.6153 78.2221 39.9153 78.2221 39.122C78.2221 38.3287 78.3948 37.6287 78.7401 37.022C79.0948 36.4153 79.5754 35.9487 80.1821 35.622C80.7888 35.286 81.4654 35.118 82.2121 35.118C82.9588 35.118 83.6354 35.286 84.2421 35.622C84.8488 35.9487 85.3248 36.4153 85.6701 37.022C86.0248 37.6287 86.2021 38.3287 86.2021 39.122C86.2021 39.9153 86.0201 40.6153 85.6561 41.222C85.3014 41.8287 84.8161 42.3 84.2001 42.636C83.5934 42.9627 82.9121 43.126 82.1561 43.126ZM82.1561 41.418C82.5108 41.418 82.8421 41.334 83.1501 41.166C83.4674 40.9887 83.7194 40.7273 83.9061 40.382C84.0928 40.0367 84.1861 39.6167 84.1861 39.122C84.1861 38.3847 83.9901 37.82 83.5981 37.428C83.2154 37.0267 82.7441 36.826 82.1841 36.826C81.6241 36.826 81.1528 37.0267 80.7701 37.428C80.3968 37.82 80.2101 38.3847 80.2101 39.122C80.2101 39.8593 80.3921 40.4287 80.7561 40.83C81.1294 41.222 81.5961 41.418 82.1561 41.418ZM91.0838 43.126C90.3372 43.126 89.6652 42.9627 89.0678 42.636C88.4705 42.3 87.9992 41.8287 87.6538 41.222C87.3178 40.6153 87.1498 39.9153 87.1498 39.122C87.1498 38.3287 87.3225 37.6287 87.6678 37.022C88.0225 36.4153 88.5032 35.9487 89.1098 35.622C89.7165 35.286 90.3932 35.118 91.1398 35.118C91.8865 35.118 92.5632 35.286 93.1698 35.622C93.7765 35.9487 94.2525 36.4153 94.5978 37.022C94.9525 37.6287 95.1298 38.3287 95.1298 39.122C95.1298 39.9153 94.9478 40.6153 94.5838 41.222C94.2292 41.8287 93.7438 42.3 93.1278 42.636C92.5212 42.9627 91.8398 43.126 91.0838 43.126ZM91.0838 41.418C91.4385 41.418 91.7698 41.334 92.0778 41.166C92.3952 40.9887 92.6472 40.7273 92.8338 40.382C93.0205 40.0367 93.1138 39.6167 93.1138 39.122C93.1138 38.3847 92.9178 37.82 92.5258 37.428C92.1432 37.0267 91.6718 36.826 91.1118 36.826C90.5518 36.826 90.0805 37.0267 89.6978 37.428C89.3245 37.82 89.1378 38.3847 89.1378 39.122C89.1378 39.8593 89.3198 40.4287 89.6838 40.83C90.0572 41.222 90.5238 41.418 91.0838 41.418ZM99.6056 35.118C100.184 35.118 100.693 35.2347 101.132 35.468C101.57 35.692 101.916 35.986 102.168 36.35V35.244H104.142V43.056C104.142 43.7747 103.997 44.414 103.708 44.974C103.418 45.5433 102.984 45.9913 102.406 46.318C101.827 46.654 101.127 46.822 100.306 46.822C99.2042 46.822 98.2989 46.5653 97.5896 46.052C96.8896 45.5387 96.4929 44.8387 96.3996 43.952H98.3456C98.4482 44.3067 98.6676 44.5867 99.0036 44.792C99.3489 45.0067 99.7642 45.114 100.25 45.114C100.819 45.114 101.281 44.9413 101.636 44.596C101.99 44.26 102.168 43.7467 102.168 43.056V41.852C101.916 42.216 101.566 42.5193 101.118 42.762C100.679 43.0047 100.175 43.126 99.6056 43.126C98.9522 43.126 98.3549 42.958 97.8136 42.622C97.2722 42.286 96.8429 41.8147 96.5256 41.208C96.2176 40.592 96.0636 39.8873 96.0636 39.094C96.0636 38.31 96.2176 37.6147 96.5256 37.008C96.8429 36.4013 97.2676 35.9347 97.7996 35.608C98.3409 35.2813 98.9429 35.118 99.6056 35.118ZM102.168 39.122C102.168 38.646 102.074 38.24 101.888 37.904C101.701 37.5587 101.449 37.2973 101.132 37.12C100.814 36.9333 100.474 36.84 100.11 36.84C99.7456 36.84 99.4096 36.9287 99.1016 37.106C98.7936 37.2833 98.5416 37.5447 98.3456 37.89C98.1589 38.226 98.0656 38.6273 98.0656 39.094C98.0656 39.5607 98.1589 39.9713 98.3456 40.326C98.5416 40.6713 98.7936 40.9373 99.1016 41.124C99.4189 41.3107 99.7549 41.404 100.11 41.404C100.474 41.404 100.814 41.3153 101.132 41.138C101.449 40.9513 101.701 40.69 101.888 40.354C102.074 40.0087 102.168 39.598 102.168 39.122ZM108.016 32.64V43H106.056V32.64H108.016ZM117.162 38.954C117.162 39.234 117.144 39.486 117.106 39.71H111.436C111.483 40.27 111.679 40.7087 112.024 41.026C112.37 41.3433 112.794 41.502 113.298 41.502C114.026 41.502 114.544 41.1893 114.852 40.564H116.966C116.742 41.3107 116.313 41.9267 115.678 42.412C115.044 42.888 114.264 43.126 113.34 43.126C112.594 43.126 111.922 42.9627 111.324 42.636C110.736 42.3 110.274 41.8287 109.938 41.222C109.612 40.6153 109.448 39.9153 109.448 39.122C109.448 38.3193 109.612 37.6147 109.938 37.008C110.265 36.4013 110.722 35.9347 111.31 35.608C111.898 35.2813 112.575 35.118 113.34 35.118C114.078 35.118 114.736 35.2767 115.314 35.594C115.902 35.9113 116.355 36.364 116.672 36.952C116.999 37.5307 117.162 38.198 117.162 38.954ZM115.132 38.394C115.123 37.89 114.941 37.4887 114.586 37.19C114.232 36.882 113.798 36.728 113.284 36.728C112.799 36.728 112.388 36.8773 112.052 37.176C111.726 37.4653 111.525 37.8713 111.45 38.394H115.132ZM129.055 36.252C129.055 36.7747 128.929 37.2647 128.677 37.722C128.434 38.1793 128.047 38.548 127.515 38.828C126.992 39.108 126.33 39.248 125.527 39.248H123.889V43H121.929V33.228H125.527C126.283 33.228 126.927 33.3587 127.459 33.62C127.991 33.8813 128.388 34.2407 128.649 34.698C128.92 35.1553 129.055 35.6733 129.055 36.252ZM125.443 37.666C125.984 37.666 126.386 37.5447 126.647 37.302C126.908 37.05 127.039 36.7 127.039 36.252C127.039 35.3 126.507 34.824 125.443 34.824H123.889V37.666H125.443ZM132.406 32.64V43H130.446V32.64H132.406ZM133.839 39.094C133.839 38.31 133.993 37.6147 134.301 37.008C134.618 36.4013 135.043 35.9347 135.575 35.608C136.116 35.2813 136.718 35.118 137.381 35.118C137.96 35.118 138.464 35.2347 138.893 35.468C139.332 35.7013 139.682 35.9953 139.943 36.35V35.244H141.917V43H139.943V41.866C139.691 42.23 139.341 42.5333 138.893 42.776C138.454 43.0093 137.946 43.126 137.367 43.126C136.714 43.126 136.116 42.958 135.575 42.622C135.043 42.286 134.618 41.8147 134.301 41.208C133.993 40.592 133.839 39.8873 133.839 39.094ZM139.943 39.122C139.943 38.646 139.85 38.24 139.663 37.904C139.476 37.5587 139.224 37.2973 138.907 37.12C138.59 36.9333 138.249 36.84 137.885 36.84C137.521 36.84 137.185 36.9287 136.877 37.106C136.569 37.2833 136.317 37.5447 136.121 37.89C135.934 38.226 135.841 38.6273 135.841 39.094C135.841 39.5607 135.934 39.9713 136.121 40.326C136.317 40.6713 136.569 40.9373 136.877 41.124C137.194 41.3107 137.53 41.404 137.885 41.404C138.249 41.404 138.59 41.3153 138.907 41.138C139.224 40.9513 139.476 40.69 139.663 40.354C139.85 40.0087 139.943 39.598 139.943 39.122ZM151.251 35.244L146.449 46.668H144.363L146.043 42.804L142.935 35.244H145.133L147.135 40.662L149.165 35.244H151.251Z" fill="black"/>
</g>
<defs>
<filter id="filter0_d_1_22306" x="0.5" y="0.5" width="186" height="79" filterUnits="userSpaceOnUse" color-interpolation-filters="sRGB">
<feFlood flood-opacity="0" result="BackgroundImageFix"/>
<feColorMatrix in="SourceAlpha" type="matrix" values="0 0 0 0 0 0 0 0 0 0 0 0 0 0 0 0 0 0 127 0" result="hardAlpha"/>
<feOffset dy="10"/>
<feGaussianBlur stdDeviation="5"/>
<feComposite in2="hardAlpha" operator="out"/>
<feColorMatrix type="matrix" values="0 0 0 0 0.121569 0 0 0 0 0.713726 0 0 0 0 0.371812 0 0 0 0.04 0"/>
<feBlend mode="normal" in2="BackgroundImageFix" result="effect1_dropShadow_1_22306"/>
<feBlend mode="normal" in="SourceGraphic" in2="effect1_dropShadow_1_22306" result="shape"/>
</filter>
</defs>
</svg>
