<svg width="32" height="33" viewBox="0 0 32 33" fill="none" xmlns="http://www.w3.org/2000/svg">
<g filter="url(#filter0_d_464_40)">
<path fill-rule="evenodd" clip-rule="evenodd" d="M4 8.26667C4 6.77319 4 6.02646 4.29065 5.45603C4.54631 4.95426 4.95426 4.54631 5.45603 4.29065C6.02646 4 6.77319 4 8.26667 4H23.7333C25.2268 4 25.9735 4 26.544 4.29065C27.0457 4.54631 27.4537 4.95426 27.7094 5.45603C28 6.02646 28 6.77319 28 8.26667V19.7333C28 21.2268 28 21.9735 27.7094 22.544C27.4537 23.0457 27.0457 23.4537 26.544 23.7094C25.9735 24 25.2268 24 23.7333 24H17.8855L20.9428 27.0573C21.4635 27.578 21.4635 28.4222 20.9428 28.9429C20.4221 29.4636 19.5779 29.4636 19.0572 28.9429L16 25.8857L12.9428 28.9429C12.4221 29.4636 11.5779 29.4636 11.0572 28.9429C10.5365 28.4222 10.5365 27.578 11.0572 27.0573L14.1145 24H8.26667C6.77319 24 6.02646 24 5.45603 23.7094C4.95426 23.4537 4.54631 23.0457 4.29065 22.544C4 21.9735 4 21.2268 4 19.7333V8.26667ZM22.1311 9.59837C22.7211 10.0389 22.8423 10.8744 22.4017 11.4645L18.9148 16.1344C18.4807 16.7159 17.6866 16.8924 17.047 16.5498L14.4969 15.1837L11.6414 18.2432C11.139 18.7815 10.2952 18.8106 9.75691 18.3082C9.21858 17.8057 9.18949 16.962 9.69193 16.4237L13.1775 12.6891C13.6314 12.2028 14.3559 12.0829 14.9423 12.397L17.3959 13.7115L20.265 9.86903C20.7055 9.27898 21.541 9.15781 22.1311 9.59837Z" fill="white"/>
</g>
<defs>
<filter id="filter0_d_464_40" x="2" y="3" width="28" height="29.3334" filterUnits="userSpaceOnUse" color-interpolation-filters="sRGB">
<feFlood flood-opacity="0" result="BackgroundImageFix"/>
<feColorMatrix in="SourceAlpha" type="matrix" values="0 0 0 0 0 0 0 0 0 0 0 0 0 0 0 0 0 0 127 0" result="hardAlpha"/>
<feOffset dy="1"/>
<feGaussianBlur stdDeviation="1"/>
<feComposite in2="hardAlpha" operator="out"/>
<feColorMatrix type="matrix" values="0 0 0 0 0.0627451 0 0 0 0 0.0941176 0 0 0 0 0.156863 0 0 0 0.04 0"/>
<feBlend mode="normal" in2="BackgroundImageFix" result="effect1_dropShadow_464_40"/>
<feBlend mode="normal" in="SourceGraphic" in2="effect1_dropShadow_464_40" result="shape"/>
</filter>
</defs>
</svg>
