<svg width="584" height="50" viewBox="0 0 584 50" fill="none" xmlns="http://www.w3.org/2000/svg">
<path d="M429.163 42.253C428.227 42.253 427.328 41.8971 426.654 41.2417L414.734 31.8403H411.878C411.316 31.8403 410.857 31.3815 410.857 30.8196V12.6162C410.857 12.532 410.866 12.4383 410.895 12.354C411.007 11.9046 411.419 11.5956 411.878 11.5956C411.962 11.5956 412.046 11.6049 412.14 11.633L416.756 12.8129L416.859 12.7473C418.311 11.839 422.094 9.72282 425.68 9.72282C426.542 9.72282 427.347 9.84456 428.068 10.0974L428.208 10.1442L428.321 10.0599C430.166 8.74898 432.244 8.09351 434.501 8.09351C436.083 8.09351 437.788 8.42124 439.567 9.05799C442.928 10.5 448.884 12.7942 450.775 12.8972L455.851 11.6049C455.926 11.5862 456.01 11.5768 456.094 11.5768C456.328 11.5768 456.553 11.6518 456.731 11.7922C456.993 11.9889 457.143 12.2885 457.143 12.6069V30.8196C457.143 31.3815 456.684 31.8403 456.122 31.8403H452.405L449.333 32.8048V33.0202C449.361 33.685 449.193 34.3405 448.875 34.9117C448.238 36.0353 447.03 36.7376 445.728 36.7376C445.11 36.7376 444.492 36.5784 443.949 36.2694L443.678 36.1102L443.556 36.4005C442.985 37.7302 441.683 38.5823 440.232 38.5917C439.604 38.5917 438.986 38.4231 438.434 38.1047L438.162 37.9456L438.041 38.2358C437.469 39.5655 436.158 40.427 434.716 40.427C434.089 40.427 433.462 40.2584 432.918 39.9401L432.647 39.7809L432.525 40.0712C432.357 40.4738 432.113 40.8296 431.813 41.1387C431.121 41.8503 430.194 42.253 429.201 42.253H429.163ZM425.596 11.7829C422.365 11.7829 418.704 13.9834 418.002 14.4328L417.889 14.5077L416.176 30.3795L427.984 39.6685C427.984 39.6685 428.04 39.7153 428.068 39.7434C428.377 40.0431 428.78 40.2023 429.192 40.2023C429.604 40.2023 430.006 40.0431 430.306 39.7622C430.924 39.1348 430.924 38.1328 430.306 37.5148L426.626 33.8348C426.439 33.6475 426.326 33.3853 426.326 33.1138C426.326 32.8422 426.429 32.5801 426.626 32.4021C426.823 32.2055 427.075 32.1025 427.347 32.1025C427.619 32.1025 427.871 32.2055 428.068 32.4021L433.565 37.9175C433.892 38.2358 434.286 38.395 434.698 38.395C435.11 38.395 435.531 38.2265 435.831 37.9175C436.121 37.6085 436.28 37.2152 436.28 36.7938C436.28 36.3724 436.102 35.9791 435.802 35.6795L430.268 30.1642C429.866 29.7709 429.866 29.1154 430.268 28.7221C430.465 28.5255 430.718 28.4225 430.99 28.4225C431.261 28.4225 431.523 28.5255 431.711 28.7221L439.089 36.0821C439.389 36.3724 439.782 36.5316 440.194 36.5316C440.606 36.5316 441 36.3724 441.29 36.0915C441.917 35.4829 441.936 34.4809 441.327 33.8535L433.967 26.4748C433.63 26.1002 433.64 25.5103 433.986 25.1264C434.183 24.911 434.454 24.7893 434.744 24.7893C434.997 24.7893 435.241 24.8829 435.428 25.0515L444.614 34.2375C444.923 34.5277 445.316 34.6963 445.738 34.6963C446.159 34.6963 446.552 34.5371 446.852 34.2468C447.461 33.6288 447.461 32.6175 446.852 32.0089L434.295 19.4612L434.098 19.6298C432.3 21.1748 430.503 21.9614 428.733 21.9614C427.459 21.9614 426.233 21.5588 425.081 20.7722C423.274 19.5268 422.731 17.0734 423.845 15.1819C424.453 14.1519 425.156 13.1781 425.942 12.2698L426.336 11.8109H425.615L425.596 11.7829ZM436.673 14.0864C436.917 14.0864 437.151 14.1706 437.338 14.3298C437.76 14.695 437.816 15.3411 437.441 15.7719C436.936 16.5023 436.411 17.1671 435.877 17.7757L435.699 17.9724L448.266 30.5387C448.331 30.6043 448.388 30.6698 448.444 30.7447L448.565 30.8946L451.15 30.0893L449.97 14.8355L449.764 14.798C446.702 14.2081 441.121 11.9233 438.865 10.9682C437.291 10.4064 435.831 10.1255 434.501 10.1255C432.488 10.1255 430.652 10.7716 429.06 12.045C429.014 12.0919 428.986 12.1106 428.948 12.1387C427.59 13.2998 426.476 14.6669 425.615 16.2026C425.043 17.1577 425.306 18.4125 426.214 19.068C427 19.6111 427.843 19.8826 428.705 19.8826C430.933 19.8826 433.312 18.1128 435.765 14.6295C435.812 14.5546 435.849 14.4984 435.887 14.4516C436.083 14.2268 436.364 14.0957 436.664 14.0957L436.673 14.0864ZM451.974 14.6857L453.145 29.7896H455.083V13.9178L451.983 14.695L451.974 14.6857ZM412.898 29.8083H414.181L415.811 14.6669L412.898 13.9178V29.8083Z" fill="#4F4F4F"/>
<path d="M59.705 20.3437V17.3281L66.2597 7H68.9394V11.0937H67.3847L63.5488 17.1719V17.2969H73.0409V20.3437H59.705ZM67.4316 23V19.4219L67.5097 18.1016V7H71.1269V23H67.4316ZM76.8776 23.2266C76.3151 23.2266 75.8333 23.0286 75.4323 22.6328C75.0364 22.237 74.8411 21.7578 74.8463 21.1953C74.8411 20.6432 75.0364 20.1719 75.4323 19.7812C75.8333 19.3854 76.3151 19.1875 76.8776 19.1875C77.4088 19.1875 77.8776 19.3854 78.2838 19.7812C78.6953 20.1719 78.9036 20.6432 78.9088 21.1953C78.9036 21.5703 78.8047 21.9115 78.612 22.2188C78.4245 22.526 78.1771 22.7708 77.8698 22.9531C77.5677 23.1354 77.237 23.2266 76.8776 23.2266ZM87.2416 23.2187C86.0749 23.2187 85.0384 23.0078 84.1322 22.5859C83.2259 22.1641 82.5098 21.5833 81.9837 20.8437C81.4629 20.1042 81.1921 19.2552 81.1712 18.2969H84.9212C84.9525 18.8854 85.1921 19.3594 85.64 19.7187C86.0879 20.0729 86.6218 20.25 87.2416 20.25C87.7259 20.25 88.1556 20.1432 88.5306 19.9297C88.9056 19.7161 89.1999 19.4167 89.4134 19.0312C89.627 18.6406 89.7311 18.1927 89.7259 17.6875C89.7311 17.1719 89.6244 16.7214 89.4056 16.3359C89.1921 15.9505 88.8952 15.651 88.515 15.4375C88.14 15.2187 87.7077 15.1094 87.2181 15.1094C86.7546 15.1042 86.3145 15.2057 85.8978 15.4141C85.4864 15.6224 85.1739 15.9062 84.9603 16.2656L81.5462 15.625L82.2416 7H92.5072V10.1172H85.4212L85.0541 13.8906H85.1478C85.4134 13.4479 85.8405 13.0833 86.4291 12.7969C87.0228 12.5052 87.6973 12.3594 88.4525 12.3594C89.4108 12.3594 90.265 12.5833 91.015 13.0312C91.7702 13.474 92.364 14.0885 92.7962 14.875C93.2337 15.6615 93.4525 16.5625 93.4525 17.5781C93.4525 18.6771 93.1921 19.651 92.6712 20.5C92.1556 21.349 91.4317 22.0156 90.4994 22.5C89.5723 22.9792 88.4864 23.2187 87.2416 23.2187ZM100.152 20.6875V9.375H103.301V20.6875H100.152ZM96.0665 16.6094V13.4531H107.379V16.6094H96.0665Z" fill="url(#paint0_linear_10_36936)"/>
<path d="M277.18 23V20.2188L283.016 15.1094C283.453 14.7135 283.826 14.3516 284.133 14.0234C284.44 13.6901 284.674 13.3568 284.836 13.0234C284.997 12.6849 285.078 12.3177 285.078 11.9219C285.078 11.4792 284.982 11.1016 284.789 10.7891C284.596 10.4714 284.331 10.2266 283.992 10.0547C283.654 9.88281 283.266 9.79687 282.828 9.79687C282.385 9.79687 281.997 9.88802 281.664 10.0703C281.331 10.2474 281.07 10.5052 280.883 10.8438C280.701 11.1823 280.609 11.5937 280.609 12.0781H276.945C276.945 10.9896 277.19 10.0495 277.68 9.25781C278.169 8.46615 278.857 7.85677 279.742 7.42969C280.633 6.9974 281.667 6.78125 282.844 6.78125C284.057 6.78125 285.112 6.98437 286.008 7.39062C286.904 7.79687 287.596 8.36458 288.086 9.09375C288.581 9.81771 288.828 10.6589 288.828 11.6172C288.828 12.2266 288.706 12.8307 288.461 13.4297C288.216 14.0286 287.776 14.6901 287.141 15.4141C286.51 16.138 285.615 17.0052 284.453 18.0156L282.539 19.7812V19.8828H289.023V23H277.18ZM297.606 23.3906C296.21 23.3906 295.007 23.0599 293.997 22.3984C292.986 21.7318 292.208 20.776 291.661 19.5313C291.114 18.2812 290.843 16.7786 290.848 15.0234C290.854 13.2682 291.127 11.7786 291.669 10.5547C292.216 9.32552 292.992 8.39062 293.997 7.75C295.007 7.10417 296.21 6.78125 297.606 6.78125C299.002 6.78125 300.205 7.10417 301.216 7.75C302.231 8.39062 303.012 9.32552 303.559 10.5547C304.106 11.7839 304.377 13.2734 304.372 15.0234C304.372 16.7839 304.098 18.2891 303.551 19.5391C303.005 20.7891 302.226 21.7448 301.216 22.4062C300.21 23.0625 299.007 23.3906 297.606 23.3906ZM297.606 20.2266C298.44 20.2266 299.114 19.8021 299.63 18.9531C300.145 18.099 300.4 16.7891 300.395 15.0234C300.395 13.8672 300.278 12.9141 300.044 12.1641C299.809 11.4089 299.484 10.8464 299.067 10.4766C298.65 10.1068 298.163 9.92187 297.606 9.92187C296.778 9.92187 296.109 10.3411 295.598 11.1797C295.088 12.013 294.83 13.2943 294.825 15.0234C294.82 16.1953 294.932 17.1667 295.161 17.9375C295.395 18.7083 295.723 19.2839 296.145 19.6641C296.567 20.0391 297.054 20.2266 297.606 20.2266ZM309.609 20.8125L309.539 21.6797C309.476 22.3984 309.348 23.099 309.156 23.7812C308.968 24.4688 308.768 25.0859 308.554 25.6328C308.341 26.1797 308.171 26.6042 308.046 26.9063H305.64C305.723 26.6042 305.835 26.1797 305.976 25.6328C306.122 25.0859 306.257 24.4688 306.382 23.7812C306.507 23.0937 306.578 22.3958 306.593 21.6875L306.609 20.8125H309.609ZM318.221 23.3906C316.825 23.3906 315.622 23.0599 314.611 22.3984C313.601 21.7318 312.822 20.776 312.276 19.5313C311.729 18.2812 311.458 16.7786 311.463 15.0234C311.468 13.2682 311.742 11.7786 312.283 10.5547C312.83 9.32552 313.606 8.39062 314.611 7.75C315.622 7.10417 316.825 6.78125 318.221 6.78125C319.617 6.78125 320.82 7.10417 321.83 7.75C322.846 8.39062 323.627 9.32552 324.174 10.5547C324.721 11.7839 324.992 13.2734 324.986 15.0234C324.986 16.7839 324.713 18.2891 324.166 19.5391C323.619 20.7891 322.841 21.7448 321.83 22.4062C320.825 23.0625 319.622 23.3906 318.221 23.3906ZM318.221 20.2266C319.054 20.2266 319.729 19.8021 320.244 18.9531C320.76 18.099 321.015 16.7891 321.01 15.0234C321.01 13.8672 320.893 12.9141 320.658 12.1641C320.424 11.4089 320.098 10.8464 319.682 10.4766C319.265 10.1068 318.778 9.92187 318.221 9.92187C317.393 9.92187 316.723 10.3411 316.213 11.1797C315.703 12.013 315.445 13.2943 315.44 15.0234C315.434 16.1953 315.546 17.1667 315.776 17.9375C316.01 18.7083 316.338 19.2839 316.76 19.6641C317.182 20.0391 317.669 20.2266 318.221 20.2266ZM333.599 23.3906C332.203 23.3906 331 23.0599 329.989 22.3984C328.979 21.7318 328.2 20.776 327.653 19.5313C327.106 18.2812 326.835 16.7786 326.841 15.0234C326.846 13.2682 327.119 11.7786 327.661 10.5547C328.208 9.32552 328.984 8.39062 329.989 7.75C331 7.10417 332.203 6.78125 333.599 6.78125C334.994 6.78125 336.197 7.10417 337.208 7.75C338.224 8.39062 339.005 9.32552 339.552 10.5547C340.099 11.7839 340.369 13.2734 340.364 15.0234C340.364 16.7839 340.091 18.2891 339.544 19.5391C338.997 20.7891 338.218 21.7448 337.208 22.4062C336.203 23.0625 335 23.3906 333.599 23.3906ZM333.599 20.2266C334.432 20.2266 335.106 19.8021 335.622 18.9531C336.138 18.099 336.393 16.7891 336.388 15.0234C336.388 13.8672 336.27 12.9141 336.036 12.1641C335.802 11.4089 335.476 10.8464 335.059 10.4766C334.643 10.1068 334.156 9.92187 333.599 9.92187C332.77 9.92187 332.101 10.3411 331.591 11.1797C331.08 12.013 330.822 13.2943 330.817 15.0234C330.812 16.1953 330.924 17.1667 331.153 17.9375C331.388 18.7083 331.716 19.2839 332.138 19.6641C332.559 20.0391 333.046 20.2266 333.599 20.2266ZM348.976 23.3906C347.58 23.3906 346.377 23.0599 345.367 22.3984C344.356 21.7318 343.578 20.776 343.031 19.5313C342.484 18.2812 342.213 16.7786 342.218 15.0234C342.224 13.2682 342.497 11.7786 343.039 10.5547C343.586 9.32552 344.362 8.39062 345.367 7.75C346.377 7.10417 347.58 6.78125 348.976 6.78125C350.372 6.78125 351.575 7.10417 352.586 7.75C353.601 8.39062 354.382 9.32552 354.929 10.5547C355.476 11.7839 355.747 13.2734 355.742 15.0234C355.742 16.7839 355.468 18.2891 354.921 19.5391C354.375 20.7891 353.596 21.7448 352.586 22.4062C351.58 23.0625 350.377 23.3906 348.976 23.3906ZM348.976 20.2266C349.81 20.2266 350.484 19.8021 351 18.9531C351.515 18.099 351.77 16.7891 351.765 15.0234C351.765 13.8672 351.648 12.9141 351.414 12.1641C351.179 11.4089 350.854 10.8464 350.437 10.4766C350.02 10.1068 349.533 9.92187 348.976 9.92187C348.148 9.92187 347.479 10.3411 346.968 11.1797C346.458 12.013 346.2 13.2943 346.195 15.0234C346.19 16.1953 346.302 17.1667 346.531 17.9375C346.765 18.7083 347.093 19.2839 347.515 19.6641C347.937 20.0391 348.424 20.2266 348.976 20.2266ZM362.534 20.6875V9.375H365.682V20.6875H362.534ZM358.448 16.6094V13.4531H369.76V16.6094H358.448Z" fill="url(#paint1_linear_10_36936)"/>
<path d="M489.203 6.78125C490.078 6.78125 490.914 6.92448 491.711 7.21094C492.508 7.49219 493.219 7.94271 493.844 8.5625C494.469 9.17708 494.961 9.98698 495.32 10.9922C495.68 11.9974 495.859 13.224 495.859 14.6719C495.865 16.0052 495.708 17.2005 495.391 18.2578C495.073 19.3099 494.617 20.2057 494.023 20.9453C493.435 21.6849 492.727 22.25 491.898 22.6406C491.07 23.026 490.146 23.2187 489.125 23.2187C488 23.2187 487.008 23.0026 486.148 22.5703C485.294 22.1328 484.609 21.5443 484.094 20.8047C483.583 20.0651 483.279 19.237 483.18 18.3203H486.984C487.104 18.8516 487.357 19.2526 487.742 19.5234C488.128 19.7891 488.589 19.9219 489.125 19.9219C490.104 19.9219 490.836 19.4974 491.32 18.6484C491.805 17.7995 492.047 16.6458 492.047 15.1875H491.953C491.729 15.6667 491.411 16.0781 491 16.4219C490.594 16.7656 490.122 17.0286 489.586 17.2109C489.049 17.3932 488.484 17.4844 487.891 17.4844C486.932 17.4844 486.086 17.2656 485.352 16.8281C484.622 16.3906 484.049 15.7891 483.633 15.0234C483.221 14.2578 483.013 13.3828 483.008 12.3984C483.003 11.2943 483.26 10.3203 483.781 9.47656C484.302 8.6276 485.029 7.96615 485.961 7.49219C486.893 7.01302 487.974 6.77604 489.203 6.78125ZM489.227 9.75C488.747 9.75 488.32 9.86198 487.945 10.0859C487.576 10.3099 487.284 10.612 487.07 10.9922C486.857 11.3724 486.753 11.7995 486.758 12.2734C486.763 12.7474 486.87 13.1745 487.078 13.5547C487.292 13.9349 487.581 14.237 487.945 14.4609C488.315 14.6849 488.737 14.7969 489.211 14.7969C489.565 14.7969 489.893 14.7318 490.195 14.6016C490.497 14.4714 490.76 14.2917 490.984 14.0625C491.208 13.8281 491.383 13.5573 491.508 13.25C491.638 12.9427 491.701 12.6146 491.695 12.2656C491.69 11.8021 491.581 11.3802 491.367 11C491.154 10.6198 490.859 10.3177 490.484 10.0937C490.115 9.86458 489.695 9.75 489.227 9.75ZM503.786 6.78125C504.661 6.78125 505.497 6.92448 506.294 7.21094C507.091 7.49219 507.801 7.94271 508.426 8.5625C509.051 9.17708 509.544 9.98698 509.903 10.9922C510.262 11.9974 510.442 13.224 510.442 14.6719C510.447 16.0052 510.291 17.2005 509.973 18.2578C509.656 19.3099 509.2 20.2057 508.606 20.9453C508.018 21.6849 507.309 22.25 506.481 22.6406C505.653 23.026 504.729 23.2187 503.708 23.2187C502.583 23.2187 501.591 23.0026 500.731 22.5703C499.877 22.1328 499.192 21.5443 498.676 20.8047C498.166 20.0651 497.861 19.237 497.762 18.3203H501.567C501.687 18.8516 501.94 19.2526 502.325 19.5234C502.71 19.7891 503.171 19.9219 503.708 19.9219C504.687 19.9219 505.419 19.4974 505.903 18.6484C506.387 17.7995 506.63 16.6458 506.63 15.1875H506.536C506.312 15.6667 505.994 16.0781 505.583 16.4219C505.176 16.7656 504.705 17.0286 504.169 17.2109C503.632 17.3932 503.067 17.4844 502.473 17.4844C501.515 17.4844 500.669 17.2656 499.934 16.8281C499.205 16.3906 498.632 15.7891 498.216 15.0234C497.804 14.2578 497.596 13.3828 497.591 12.3984C497.585 11.2943 497.843 10.3203 498.364 9.47656C498.885 8.6276 499.611 7.96615 500.544 7.49219C501.476 7.01302 502.557 6.77604 503.786 6.78125ZM503.809 9.75C503.33 9.75 502.903 9.86198 502.528 10.0859C502.158 10.3099 501.867 10.612 501.653 10.9922C501.44 11.3724 501.335 11.7995 501.341 12.2734C501.346 12.7474 501.453 13.1745 501.661 13.5547C501.874 13.9349 502.163 14.237 502.528 14.4609C502.898 14.6849 503.32 14.7969 503.794 14.7969C504.148 14.7969 504.476 14.7318 504.778 14.6016C505.08 14.4714 505.343 14.2917 505.567 14.0625C505.791 13.8281 505.966 13.5573 506.091 13.25C506.221 12.9427 506.283 12.6146 506.278 12.2656C506.273 11.8021 506.163 11.3802 505.95 11C505.736 10.6198 505.442 10.3177 505.067 10.0937C504.697 9.86458 504.278 9.75 503.809 9.75ZM513.837 23.2266C513.275 23.2266 512.793 23.0286 512.392 22.6328C511.996 22.237 511.801 21.7578 511.806 21.1953C511.801 20.6432 511.996 20.1719 512.392 19.7812C512.793 19.3854 513.275 19.1875 513.837 19.1875C514.369 19.1875 514.837 19.3854 515.244 19.7812C515.655 20.1719 515.863 20.6432 515.869 21.1953C515.863 21.5703 515.764 21.9115 515.572 22.2188C515.384 22.526 515.137 22.7708 514.83 22.9531C514.527 23.1354 514.197 23.2266 513.837 23.2266ZM523.703 23.2187C522.458 23.2187 521.347 23.0208 520.367 22.625C519.393 22.224 518.628 21.6823 518.07 21C517.518 20.3125 517.242 19.5365 517.242 18.6719C517.242 18.0104 517.401 17.4036 517.719 16.8516C518.037 16.2995 518.466 15.8411 519.008 15.4766C519.555 15.1068 520.164 14.8698 520.836 14.7656V14.6406C519.956 14.4792 519.235 14.0703 518.672 13.4141C518.115 12.7578 517.836 11.9896 517.836 11.1094C517.836 10.276 518.089 9.53385 518.594 8.88281C519.104 8.23177 519.8 7.71875 520.68 7.34375C521.565 6.96875 522.573 6.78125 523.703 6.78125C524.833 6.78125 525.839 6.96875 526.719 7.34375C527.604 7.71875 528.3 8.23177 528.805 8.88281C529.315 9.53385 529.57 10.276 529.57 11.1094C529.57 11.9948 529.287 12.7656 528.719 13.4219C528.156 14.0729 527.44 14.4792 526.57 14.6406V14.7656C527.237 14.8698 527.841 15.1068 528.383 15.4766C528.93 15.8411 529.362 16.2995 529.68 16.8516C530.003 17.4036 530.164 18.0104 530.164 18.6719C530.164 19.5365 529.886 20.3125 529.328 21C528.771 21.6823 528.005 22.224 527.031 22.625C526.063 23.0208 524.953 23.2187 523.703 23.2187ZM523.703 20.4766C524.177 20.4766 524.594 20.388 524.953 20.2109C525.313 20.0286 525.594 19.776 525.797 19.4531C526.005 19.1302 526.11 18.7656 526.11 18.3594C526.11 17.9427 526.005 17.5729 525.797 17.25C525.589 16.9271 525.302 16.6745 524.938 16.4922C524.578 16.3047 524.167 16.2109 523.703 16.2109C523.245 16.2109 522.833 16.3047 522.469 16.4922C522.104 16.6745 521.818 16.9271 521.61 17.25C521.401 17.5729 521.297 17.9427 521.297 18.3594C521.297 18.7656 521.399 19.1302 521.602 19.4531C521.81 19.7708 522.094 20.0208 522.453 20.2031C522.818 20.3854 523.235 20.4766 523.703 20.4766ZM523.703 13.4844C524.11 13.4844 524.469 13.401 524.781 13.2344C525.099 13.0677 525.347 12.8359 525.524 12.5391C525.706 12.2422 525.797 11.9062 525.797 11.5313C525.797 11.1563 525.706 10.8255 525.524 10.5391C525.347 10.2526 525.102 10.0286 524.789 9.86719C524.477 9.70052 524.115 9.61719 523.703 9.61719C523.297 9.61719 522.935 9.70052 522.617 9.86719C522.3 10.0286 522.052 10.2526 521.875 10.5391C521.698 10.8255 521.61 11.1563 521.61 11.5313C521.61 11.9062 521.698 12.2422 521.875 12.5391C522.057 12.8307 522.307 13.0625 522.625 13.2344C522.943 13.401 523.302 13.4844 523.703 13.4844ZM541.061 20V19.1562C541.061 18.5 541.202 17.8932 541.483 17.3359C541.77 16.7786 542.184 16.3307 542.725 15.9922C543.267 15.6536 543.929 15.4844 544.71 15.4844C545.507 15.4844 546.176 15.6536 546.718 15.9922C547.265 16.3255 547.676 16.7708 547.952 17.3281C548.233 17.8802 548.374 18.4896 548.374 19.1562V20C548.374 20.6562 548.233 21.263 547.952 21.8203C547.671 22.3776 547.257 22.8255 546.71 23.1641C546.163 23.5026 545.496 23.6719 544.71 23.6719C543.918 23.6719 543.252 23.5026 542.71 23.1641C542.168 22.8255 541.757 22.3776 541.475 21.8203C541.199 21.263 541.061 20.6562 541.061 20ZM543.554 19.1562V20C543.554 20.3333 543.634 20.6536 543.796 20.9609C543.962 21.2682 544.267 21.4219 544.71 21.4219C545.163 21.4219 545.468 21.2734 545.624 20.9766C545.78 20.6745 545.858 20.349 545.858 20V19.1562C545.858 18.8073 545.783 18.4792 545.632 18.1719C545.486 17.8594 545.179 17.7031 544.71 17.7031C544.272 17.7031 543.97 17.8594 543.804 18.1719C543.637 18.4792 543.554 18.8073 543.554 19.1562ZM532.765 10.8438V10C532.765 9.33333 532.908 8.72396 533.194 8.17187C533.486 7.61458 533.903 7.16927 534.444 6.83594C534.986 6.4974 535.642 6.32812 536.413 6.32812C537.21 6.32812 537.879 6.4974 538.421 6.83594C538.968 7.16927 539.382 7.61458 539.663 8.17187C539.944 8.72396 540.085 9.33333 540.085 10V10.8438C540.085 11.5104 539.942 12.1198 539.655 12.6719C539.374 13.224 538.96 13.6641 538.413 13.9922C537.866 14.3203 537.199 14.4844 536.413 14.4844C535.627 14.4844 534.96 14.3177 534.413 13.9844C533.871 13.651 533.46 13.2083 533.179 12.6562C532.903 12.1042 532.765 11.5 532.765 10.8438ZM535.28 10V10.8438C535.28 11.1927 535.361 11.5182 535.522 11.8203C535.689 12.1172 535.986 12.2656 536.413 12.2656C536.871 12.2656 537.176 12.1172 537.327 11.8203C537.483 11.5182 537.561 11.1927 537.561 10.8438V10C537.561 9.65104 537.488 9.32292 537.343 9.01562C537.197 8.70312 536.887 8.54687 536.413 8.54687C535.975 8.54687 535.676 8.70573 535.515 9.02344C535.358 9.34115 535.28 9.66667 535.28 10ZM533.944 23L544.944 7H547.077L536.077 23H533.944Z" fill="url(#paint2_linear_10_36936)"/>
<path d="M26.8149 44.4163C24.3788 44.4163 22.4033 42.44 22.4033 40.0201V26.7306C22.4033 26.186 22.8484 25.7424 23.395 25.7424H36.7312C39.1674 25.7424 41.1428 27.7187 41.1428 30.1386V40.0124C41.1428 42.44 39.1596 44.4085 36.7312 44.4085H26.8227L26.8149 44.4163ZM24.3788 40.0201C24.3788 41.3585 25.4719 42.4477 26.8149 42.4477H36.7234C38.0664 42.4477 39.1596 41.3585 39.1596 40.0201V30.1464C39.1596 28.8081 38.0664 27.7187 36.7234 27.7187H24.3788V40.0201Z" fill="#4F4F4F"/>
<path d="M4.41158 44.416C1.97545 44.416 0 42.4397 0 40.0199V30.1461C0 27.7185 1.98326 25.75 4.41158 25.75H17.7478C18.2944 25.75 18.7395 26.1935 18.7395 26.7382V40.0277C18.7395 42.4552 16.7562 44.4238 14.3279 44.4238H4.41158V44.416ZM4.41158 27.7108C3.06859 27.7108 1.97545 28.8 1.97545 30.1384V40.0121C1.97545 41.3504 3.06859 42.4397 4.41158 42.4397H14.3201C15.6631 42.4397 16.7562 41.3504 16.7562 40.0121V27.7108H4.41158Z" fill="#4F4F4F"/>
<path d="M23.395 22.0918C22.8484 22.0918 22.4033 21.6482 22.4033 21.1035V7.81409C22.4033 5.3865 24.3866 3.41797 26.8149 3.41797H36.7234C39.1596 3.41797 41.135 5.39427 41.135 7.81409V17.6878C41.135 20.1154 39.1517 22.084 36.7234 22.084H23.3872L23.395 22.0918ZM26.8149 5.3865C25.4719 5.3865 24.3788 6.4758 24.3788 7.81409V20.1154H36.7234C38.0664 20.1154 39.1596 19.0262 39.1596 17.6878V7.81409C39.1596 6.4758 38.0664 5.3865 36.7234 5.3865H26.8149Z" fill="#4F4F4F"/>
<path d="M4.41158 22.0918C1.97545 22.0918 0 20.1154 0 17.6956V7.81409C0 5.39427 1.98326 3.41797 4.41158 3.41797H14.3201C16.7562 3.41797 18.7316 5.39427 18.7316 7.81409V21.1035C18.7316 21.6482 18.2866 22.0918 17.74 22.0918H4.41158ZM4.41158 5.3865C3.06859 5.3865 1.97545 6.4758 1.97545 7.81409V17.6878C1.97545 19.0262 3.06859 20.1154 4.41158 20.1154H16.7562V7.81409C16.7562 6.4758 15.6631 5.3865 14.3201 5.3865H4.41158Z" fill="#4F4F4F"/>
<path d="M68.8943 40.8352C68.969 40.8352 69.0343 40.8656 69.0903 40.9262L69.6293 41.5072C69.2186 41.9832 68.7193 42.3542 68.1313 42.6202C67.548 42.8862 66.841 43.0192 66.0103 43.0192C65.2916 43.0192 64.6383 42.8956 64.0503 42.6482C63.4623 42.3962 62.9606 42.0462 62.5453 41.5982C62.13 41.1456 61.808 40.6042 61.5793 39.9742C61.3506 39.3442 61.2363 38.6512 61.2363 37.8952C61.2363 37.1392 61.3553 36.4462 61.5933 35.8162C61.8313 35.1862 62.165 34.6449 62.5943 34.1922C63.0283 33.7396 63.5463 33.3896 64.1483 33.1422C64.7503 32.8902 65.4153 32.7642 66.1433 32.7642C66.8573 32.7642 67.4873 32.8786 68.0333 33.1072C68.5793 33.3359 69.06 33.6462 69.4753 34.0382L69.0273 34.6612C68.9993 34.7079 68.962 34.7476 68.9153 34.7802C68.8733 34.8082 68.815 34.8222 68.7403 34.8222C68.6563 34.8222 68.5536 34.7779 68.4323 34.6892C68.311 34.5959 68.1523 34.4932 67.9563 34.3812C67.7603 34.2692 67.5153 34.1689 67.2213 34.0802C66.9273 33.9869 66.5656 33.9402 66.1363 33.9402C65.6183 33.9402 65.1446 34.0312 64.7153 34.2132C64.286 34.3906 63.915 34.6496 63.6023 34.9902C63.2943 35.3309 63.054 35.7462 62.8813 36.2362C62.7086 36.7262 62.6223 37.2792 62.6223 37.8952C62.6223 38.5206 62.711 39.0782 62.8883 39.5682C63.0703 40.0582 63.3153 40.4736 63.6233 40.8142C63.936 41.1502 64.3023 41.4069 64.7223 41.5842C65.147 41.7616 65.6043 41.8502 66.0943 41.8502C66.393 41.8502 66.6613 41.8339 66.8993 41.8012C67.142 41.7639 67.3636 41.7079 67.5643 41.6332C67.7696 41.5586 67.9586 41.4652 68.1313 41.3532C68.3086 41.2366 68.4836 41.0989 68.6563 40.9402C68.7356 40.8702 68.815 40.8352 68.8943 40.8352ZM76.6315 35.8162V42.9072H75.8895C75.7121 42.9072 75.6001 42.8209 75.5535 42.6482L75.4555 41.8852C75.1475 42.2259 74.8021 42.5012 74.4195 42.7112C74.0368 42.9166 73.5981 43.0192 73.1035 43.0192C72.7161 43.0192 72.3731 42.9562 72.0745 42.8302C71.7805 42.6996 71.5331 42.5176 71.3325 42.2842C71.1318 42.0509 70.9801 41.7686 70.8775 41.4372C70.7795 41.1059 70.7305 40.7396 70.7305 40.3382V35.8162H71.9765V40.3382C71.9765 40.8749 72.0978 41.2902 72.3405 41.5842C72.5878 41.8782 72.9635 42.0252 73.4675 42.0252C73.8361 42.0252 74.1791 41.9389 74.4965 41.7662C74.8185 41.5889 75.1148 41.3462 75.3855 41.0382V35.8162H76.6315ZM82.7371 36.9852C82.6811 37.0879 82.5948 37.1392 82.4781 37.1392C82.4081 37.1392 82.3288 37.1136 82.2401 37.0622C82.1515 37.0109 82.0418 36.9549 81.9111 36.8942C81.7851 36.8289 81.6335 36.7706 81.4561 36.7192C81.2788 36.6632 81.0688 36.6352 80.8261 36.6352C80.6161 36.6352 80.4271 36.6632 80.2591 36.7192C80.0911 36.7706 79.9465 36.8429 79.8251 36.9362C79.7085 37.0296 79.6175 37.1392 79.5521 37.2652C79.4915 37.3866 79.4611 37.5196 79.4611 37.6642C79.4611 37.8462 79.5125 37.9979 79.6151 38.1192C79.7225 38.2406 79.8625 38.3456 80.0351 38.4342C80.2078 38.5229 80.4038 38.6022 80.6231 38.6722C80.8425 38.7376 81.0665 38.8099 81.2951 38.8892C81.5285 38.9639 81.7548 39.0479 81.9741 39.1412C82.1935 39.2346 82.3895 39.3512 82.5621 39.4912C82.7348 39.6312 82.8725 39.8039 82.9751 40.0092C83.0825 40.2099 83.1361 40.4526 83.1361 40.7372C83.1361 41.0639 83.0778 41.3672 82.9611 41.6472C82.8445 41.9226 82.6718 42.1629 82.4431 42.3682C82.2145 42.5689 81.9345 42.7276 81.6031 42.8442C81.2718 42.9609 80.8891 43.0192 80.4551 43.0192C79.9605 43.0192 79.5125 42.9399 79.1111 42.7812C78.7098 42.6179 78.3691 42.4102 78.0891 42.1582L78.3831 41.6822C78.4205 41.6216 78.4648 41.5749 78.5161 41.5422C78.5675 41.5096 78.6328 41.4932 78.7121 41.4932C78.7961 41.4932 78.8848 41.5259 78.9781 41.5912C79.0715 41.6566 79.1835 41.7289 79.3141 41.8082C79.4495 41.8876 79.6128 41.9599 79.8041 42.0252C79.9955 42.0906 80.2335 42.1232 80.5181 42.1232C80.7608 42.1232 80.9731 42.0929 81.1551 42.0322C81.3371 41.9669 81.4888 41.8806 81.6101 41.7732C81.7315 41.6659 81.8201 41.5422 81.8761 41.4022C81.9368 41.2622 81.9671 41.1129 81.9671 40.9542C81.9671 40.7582 81.9135 40.5972 81.8061 40.4712C81.7035 40.3406 81.5658 40.2309 81.3931 40.1422C81.2205 40.0489 81.0221 39.9696 80.7981 39.9042C80.5788 39.8342 80.3525 39.7619 80.1191 39.6872C79.8905 39.6126 79.6641 39.5286 79.4401 39.4352C79.2208 39.3372 79.0248 39.2159 78.8521 39.0712C78.6795 38.9266 78.5395 38.7492 78.4321 38.5392C78.3295 38.3246 78.2781 38.0656 78.2781 37.7622C78.2781 37.4916 78.3341 37.2326 78.4461 36.9852C78.5581 36.7332 78.7215 36.5139 78.9361 36.3272C79.1508 36.1359 79.4145 35.9842 79.7271 35.8722C80.0398 35.7602 80.3968 35.7042 80.7981 35.7042C81.2648 35.7042 81.6825 35.7789 82.0511 35.9282C82.4245 36.0729 82.7465 36.2736 83.0171 36.5302L82.7371 36.9852ZM86.8408 43.0192C86.2808 43.0192 85.8491 42.8629 85.5458 42.5502C85.2471 42.2376 85.0978 41.7872 85.0978 41.1992V36.8592H84.2438C84.1691 36.8592 84.1061 36.8382 84.0548 36.7962C84.0034 36.7496 83.9778 36.6796 83.9778 36.5862V36.0892L85.1398 35.9422L85.4268 33.7512C85.4408 33.6812 85.4711 33.6252 85.5178 33.5832C85.5691 33.5366 85.6344 33.5132 85.7138 33.5132H86.3438V35.9562H88.3948V36.8592H86.3438V41.1152C86.3438 41.4139 86.4161 41.6356 86.5608 41.7802C86.7054 41.9249 86.8921 41.9972 87.1208 41.9972C87.2514 41.9972 87.3634 41.9809 87.4568 41.9482C87.5548 41.9109 87.6388 41.8712 87.7088 41.8292C87.7788 41.7872 87.8371 41.7499 87.8838 41.7172C87.9351 41.6799 87.9794 41.6612 88.0168 41.6612C88.0821 41.6612 88.1404 41.7009 88.1918 41.7802L88.5558 42.3752C88.3411 42.5759 88.0821 42.7346 87.7788 42.8512C87.4754 42.9632 87.1628 43.0192 86.8408 43.0192ZM92.6293 35.7042C93.1473 35.7042 93.614 35.7906 94.0293 35.9632C94.4447 36.1359 94.7993 36.3809 95.0933 36.6982C95.3873 37.0156 95.6113 37.4006 95.7653 37.8532C95.924 38.3012 96.0033 38.8029 96.0033 39.3582C96.0033 39.9182 95.924 40.4222 95.7653 40.8702C95.6113 41.3182 95.3873 41.7009 95.0933 42.0182C94.7993 42.3356 94.4447 42.5806 94.0293 42.7532C93.614 42.9212 93.1473 43.0052 92.6293 43.0052C92.1067 43.0052 91.6353 42.9212 91.2153 42.7532C90.8 42.5806 90.4453 42.3356 90.1513 42.0182C89.8573 41.7009 89.631 41.3182 89.4723 40.8702C89.3183 40.4222 89.2413 39.9182 89.2413 39.3582C89.2413 38.8029 89.3183 38.3012 89.4723 37.8532C89.631 37.4006 89.8573 37.0156 90.1513 36.6982C90.4453 36.3809 90.8 36.1359 91.2153 35.9632C91.6353 35.7906 92.1067 35.7042 92.6293 35.7042ZM92.6293 42.0322C93.3293 42.0322 93.852 41.7989 94.1973 41.3322C94.5427 40.8609 94.7153 40.2052 94.7153 39.3652C94.7153 38.5206 94.5427 37.8626 94.1973 37.3912C93.852 36.9199 93.3293 36.6842 92.6293 36.6842C92.2747 36.6842 91.9643 36.7449 91.6983 36.8662C91.437 36.9876 91.2177 37.1626 91.0403 37.3912C90.8677 37.6199 90.737 37.9022 90.6483 38.2382C90.5643 38.5696 90.5223 38.9452 90.5223 39.3652C90.5223 40.2052 90.695 40.8609 91.0403 41.3322C91.3903 41.7989 91.92 42.0322 92.6293 42.0322ZM97.5837 42.9072V35.8162H98.3327C98.51 35.8162 98.6197 35.9026 98.6617 36.0752L98.7527 36.8032C99.014 36.4812 99.308 36.2176 99.6347 36.0122C99.9613 35.8069 100.339 35.7042 100.769 35.7042C101.245 35.7042 101.63 35.8372 101.924 36.1032C102.222 36.3692 102.437 36.7286 102.568 37.1812C102.67 36.9246 102.801 36.7029 102.96 36.5162C103.123 36.3296 103.305 36.1756 103.506 36.0542C103.706 35.9329 103.919 35.8442 104.143 35.7882C104.371 35.7322 104.602 35.7042 104.836 35.7042C105.209 35.7042 105.54 35.7649 105.83 35.8862C106.124 36.0029 106.371 36.1756 106.572 36.4042C106.777 36.6329 106.933 36.9152 107.041 37.2512C107.148 37.5826 107.202 37.9629 107.202 38.3922V42.9072H105.949V38.3922C105.949 37.8369 105.827 37.4169 105.585 37.1322C105.342 36.8429 104.992 36.6982 104.535 36.6982C104.329 36.6982 104.133 36.7356 103.947 36.8102C103.765 36.8802 103.604 36.9852 103.464 37.1252C103.324 37.2652 103.212 37.4426 103.128 37.6572C103.048 37.8672 103.009 38.1122 103.009 38.3922V42.9072H101.756V38.3922C101.756 37.8229 101.641 37.3982 101.413 37.1182C101.184 36.8382 100.85 36.6982 100.412 36.6982C100.104 36.6982 99.819 36.7822 99.5577 36.9502C99.2963 37.1136 99.056 37.3376 98.8367 37.6222V42.9072H97.5837ZM113.841 38.5882C113.841 38.2989 113.799 38.0352 113.715 37.7972C113.636 37.5546 113.517 37.3469 113.358 37.1742C113.204 36.9969 113.015 36.8616 112.791 36.7682C112.567 36.6702 112.313 36.6212 112.028 36.6212C111.431 36.6212 110.957 36.7962 110.607 37.1462C110.262 37.4916 110.047 37.9722 109.963 38.5882H113.841ZM114.849 41.9132C114.695 42.0999 114.511 42.2632 114.296 42.4032C114.082 42.5386 113.851 42.6506 113.603 42.7392C113.361 42.8279 113.109 42.8932 112.847 42.9352C112.586 42.9819 112.327 43.0052 112.07 43.0052C111.58 43.0052 111.128 42.9236 110.712 42.7602C110.302 42.5922 109.945 42.3496 109.641 42.0322C109.343 41.7102 109.109 41.3136 108.941 40.8422C108.773 40.3709 108.689 39.8296 108.689 39.2182C108.689 38.7236 108.764 38.2616 108.913 37.8322C109.067 37.4029 109.287 37.0319 109.571 36.7192C109.856 36.4019 110.204 36.1546 110.614 35.9772C111.025 35.7952 111.487 35.7042 112 35.7042C112.425 35.7042 112.817 35.7766 113.176 35.9212C113.54 36.0612 113.853 36.2666 114.114 36.5372C114.38 36.8032 114.588 37.1346 114.737 37.5312C114.887 37.9232 114.961 38.3712 114.961 38.8752C114.961 39.0712 114.94 39.2019 114.898 39.2672C114.856 39.3326 114.777 39.3652 114.66 39.3652H109.921C109.935 39.8132 109.996 40.2029 110.103 40.5342C110.215 40.8656 110.369 41.1432 110.565 41.3672C110.761 41.5866 110.995 41.7522 111.265 41.8642C111.536 41.9716 111.839 42.0252 112.175 42.0252C112.488 42.0252 112.756 41.9902 112.98 41.9202C113.209 41.8456 113.405 41.7662 113.568 41.6822C113.732 41.5982 113.867 41.5212 113.974 41.4512C114.086 41.3766 114.182 41.3392 114.261 41.3392C114.364 41.3392 114.443 41.3789 114.499 41.4582L114.849 41.9132ZM117.675 37.2372C117.899 36.7519 118.174 36.3739 118.501 36.1032C118.828 35.8279 119.227 35.6902 119.698 35.6902C119.847 35.6902 119.99 35.7066 120.125 35.7392C120.265 35.7719 120.389 35.8232 120.496 35.8932L120.405 36.8242C120.377 36.9409 120.307 36.9992 120.195 36.9992C120.13 36.9992 120.034 36.9852 119.908 36.9572C119.782 36.9292 119.64 36.9152 119.481 36.9152C119.257 36.9152 119.056 36.9479 118.879 37.0132C118.706 37.0786 118.55 37.1766 118.41 37.3072C118.275 37.4332 118.151 37.5919 118.039 37.7832C117.932 37.9699 117.834 38.1846 117.745 38.4272V42.9072H116.492V35.8162H117.206C117.341 35.8162 117.435 35.8419 117.486 35.8932C117.537 35.9446 117.572 36.0332 117.591 36.1592L117.675 37.2372ZM127.946 37.7342C128.338 37.7342 128.683 37.6876 128.982 37.5942C129.285 37.4962 129.537 37.3609 129.738 37.1882C129.943 37.0109 130.097 36.8009 130.2 36.5582C130.302 36.3156 130.354 36.0472 130.354 35.7532C130.354 35.1559 130.158 34.7056 129.766 34.4022C129.374 34.0989 128.786 33.9472 128.002 33.9472H126.518V37.7342H127.946ZM132.58 42.9072H131.376C131.128 42.9072 130.946 42.8116 130.83 42.6202L128.226 39.0362C128.146 38.9242 128.06 38.8449 127.967 38.7982C127.878 38.7469 127.738 38.7212 127.547 38.7212H126.518V42.9072H125.167V32.8762H128.002C128.636 32.8762 129.185 32.9416 129.647 33.0722C130.109 33.1982 130.489 33.3826 130.788 33.6252C131.091 33.8679 131.315 34.1619 131.46 34.5072C131.604 34.8479 131.677 35.2306 131.677 35.6552C131.677 36.0099 131.621 36.3412 131.509 36.6492C131.397 36.9572 131.233 37.2349 131.019 37.4822C130.809 37.7249 130.55 37.9326 130.242 38.1052C129.938 38.2779 129.593 38.4086 129.206 38.4972C129.378 38.5952 129.528 38.7376 129.654 38.9242L132.58 42.9072ZM137.384 39.7152C136.81 39.7339 136.32 39.7806 135.914 39.8552C135.512 39.9252 135.183 40.0186 134.927 40.1352C134.675 40.2519 134.49 40.3896 134.374 40.5482C134.262 40.7069 134.206 40.8842 134.206 41.0802C134.206 41.2669 134.236 41.4279 134.297 41.5632C134.357 41.6986 134.439 41.8106 134.542 41.8992C134.649 41.9832 134.773 42.0462 134.913 42.0882C135.057 42.1256 135.211 42.1442 135.375 42.1442C135.594 42.1442 135.795 42.1232 135.977 42.0812C136.159 42.0346 136.329 41.9692 136.488 41.8852C136.651 41.8012 136.805 41.7009 136.95 41.5842C137.099 41.4676 137.244 41.3346 137.384 41.1852V39.7152ZM133.359 36.8172C133.751 36.4392 134.173 36.1569 134.626 35.9702C135.078 35.7836 135.58 35.6902 136.131 35.6902C136.527 35.6902 136.88 35.7556 137.188 35.8862C137.496 36.0169 137.755 36.1989 137.965 36.4322C138.175 36.6656 138.333 36.9479 138.441 37.2792C138.548 37.6106 138.602 37.9746 138.602 38.3712V42.9072H138.049C137.927 42.9072 137.834 42.8886 137.769 42.8512C137.703 42.8092 137.652 42.7299 137.615 42.6132L137.475 41.9412C137.288 42.1139 137.106 42.2679 136.929 42.4032C136.751 42.5339 136.565 42.6459 136.369 42.7392C136.173 42.8279 135.963 42.8956 135.739 42.9422C135.519 42.9936 135.274 43.0192 135.004 43.0192C134.728 43.0192 134.469 42.9819 134.227 42.9072C133.984 42.8279 133.772 42.7112 133.59 42.5572C133.412 42.4032 133.27 42.2096 133.163 41.9762C133.06 41.7382 133.009 41.4582 133.009 41.1362C133.009 40.8562 133.086 40.5879 133.24 40.3312C133.394 40.0699 133.643 39.8389 133.989 39.6382C134.334 39.4376 134.784 39.2742 135.34 39.1482C135.895 39.0176 136.576 38.9429 137.384 38.9242V38.3712C137.384 37.8206 137.265 37.4052 137.027 37.1252C136.789 36.8406 136.441 36.6982 135.984 36.6982C135.676 36.6982 135.417 36.7379 135.207 36.8172C135.001 36.8919 134.822 36.9782 134.668 37.0762C134.518 37.1696 134.388 37.2559 134.276 37.3352C134.168 37.4099 134.061 37.4472 133.954 37.4472C133.87 37.4472 133.797 37.4262 133.737 37.3842C133.676 37.3376 133.625 37.2816 133.583 37.2162L133.359 36.8172ZM146.984 42.9072H145.738V36.8592H142.084V41.1152C142.084 41.4139 142.156 41.6356 142.301 41.7802C142.446 41.9249 142.632 41.9972 142.861 41.9972C142.992 41.9972 143.104 41.9809 143.197 41.9482C143.295 41.9109 143.379 41.8712 143.449 41.8292C143.519 41.7872 143.577 41.7499 143.624 41.7172C143.675 41.6799 143.72 41.6612 143.757 41.6612C143.822 41.6612 143.881 41.7009 143.932 41.7802L144.296 42.3752C144.081 42.5759 143.822 42.7346 143.519 42.8512C143.216 42.9632 142.903 43.0192 142.581 43.0192C142.021 43.0192 141.589 42.8629 141.286 42.5502C140.987 42.2376 140.838 41.7872 140.838 41.1992V36.8592H139.984C139.909 36.8592 139.846 36.8382 139.795 36.7962C139.744 36.7496 139.718 36.6796 139.718 36.5862V36.0892L140.88 35.9352L141.167 33.7512C141.181 33.6812 141.211 33.6252 141.258 33.5832C141.309 33.5366 141.375 33.5132 141.454 33.5132H142.084V35.9562H146.984V42.9072ZM147.292 33.5412C147.292 33.6626 147.266 33.7769 147.215 33.8842C147.168 33.9869 147.103 34.0779 147.019 34.1572C146.94 34.2366 146.846 34.2996 146.739 34.3462C146.632 34.3929 146.517 34.4162 146.396 34.4162C146.275 34.4162 146.16 34.3929 146.053 34.3462C145.95 34.2996 145.859 34.2366 145.78 34.1572C145.701 34.0779 145.638 33.9869 145.591 33.8842C145.544 33.7769 145.521 33.6626 145.521 33.5412C145.521 33.4199 145.544 33.3056 145.591 33.1982C145.638 33.0862 145.701 32.9906 145.78 32.9112C145.859 32.8272 145.95 32.7619 146.053 32.7152C146.16 32.6686 146.275 32.6452 146.396 32.6452C146.517 32.6452 146.632 32.6686 146.739 32.7152C146.846 32.7619 146.94 32.8272 147.019 32.9112C147.103 32.9906 147.168 33.0862 147.215 33.1982C147.266 33.3056 147.292 33.4199 147.292 33.5412ZM150.207 36.8452C150.361 36.6726 150.524 36.5162 150.697 36.3762C150.87 36.2362 151.052 36.1172 151.243 36.0192C151.439 35.9166 151.644 35.8396 151.859 35.7882C152.078 35.7322 152.314 35.7042 152.566 35.7042C152.953 35.7042 153.294 35.7696 153.588 35.9002C153.887 36.0262 154.134 36.2082 154.33 36.4462C154.531 36.6796 154.682 36.9619 154.785 37.2932C154.888 37.6246 154.939 37.9909 154.939 38.3922V42.9072H153.686V38.3922C153.686 37.8556 153.562 37.4402 153.315 37.1462C153.072 36.8476 152.701 36.6982 152.202 36.6982C151.833 36.6982 151.488 36.7869 151.166 36.9642C150.849 37.1416 150.555 37.3819 150.284 37.6852V42.9072H149.031V35.8162H149.78C149.957 35.8162 150.067 35.9026 150.109 36.0752L150.207 36.8452ZM159.309 39.4422C159.561 39.4422 159.782 39.4072 159.974 39.3372C160.165 39.2672 160.326 39.1692 160.457 39.0432C160.587 38.9172 160.685 38.7679 160.751 38.5952C160.816 38.4179 160.849 38.2242 160.849 38.0142C160.849 37.5802 160.716 37.2349 160.45 36.9782C160.188 36.7216 159.808 36.5932 159.309 36.5932C158.805 36.5932 158.42 36.7216 158.154 36.9782C157.892 37.2349 157.762 37.5802 157.762 38.0142C157.762 38.2242 157.794 38.4179 157.86 38.5952C157.93 38.7679 158.03 38.9172 158.161 39.0432C158.291 39.1692 158.452 39.2672 158.644 39.3372C158.835 39.4072 159.057 39.4422 159.309 39.4422ZM161.556 43.2922C161.556 43.1196 161.507 42.9796 161.409 42.8722C161.311 42.7649 161.178 42.6809 161.01 42.6202C160.846 42.5596 160.655 42.5176 160.436 42.4942C160.216 42.4662 159.983 42.4452 159.736 42.4312C159.493 42.4172 159.246 42.4032 158.994 42.3892C158.742 42.3752 158.499 42.3519 158.266 42.3192C158.004 42.4406 157.79 42.5946 157.622 42.7812C157.458 42.9632 157.377 43.1779 157.377 43.4252C157.377 43.5839 157.416 43.7309 157.496 43.8662C157.58 44.0062 157.706 44.1252 157.874 44.2232C158.042 44.3259 158.252 44.4052 158.504 44.4612C158.76 44.5219 159.061 44.5522 159.407 44.5522C159.743 44.5522 160.044 44.5219 160.31 44.4612C160.576 44.4006 160.8 44.3142 160.982 44.2022C161.168 44.0902 161.311 43.9572 161.409 43.8032C161.507 43.6492 161.556 43.4789 161.556 43.2922ZM162.823 36.0962V36.5582C162.823 36.7122 162.725 36.8102 162.529 36.8522L161.724 36.9572C161.882 37.2652 161.962 37.6059 161.962 37.9792C161.962 38.3246 161.894 38.6396 161.759 38.9242C161.628 39.2042 161.446 39.4446 161.213 39.6452C160.979 39.8459 160.699 39.9999 160.373 40.1072C160.046 40.2146 159.691 40.2682 159.309 40.2682C158.977 40.2682 158.665 40.2286 158.371 40.1492C158.221 40.2426 158.107 40.3429 158.028 40.4502C157.948 40.5529 157.909 40.6579 157.909 40.7652C157.909 40.9332 157.976 41.0616 158.112 41.1502C158.252 41.2342 158.434 41.2949 158.658 41.3322C158.882 41.3696 159.136 41.3929 159.421 41.4022C159.71 41.4116 160.004 41.4279 160.303 41.4512C160.606 41.4699 160.9 41.5049 161.185 41.5562C161.474 41.6076 161.731 41.6916 161.955 41.8082C162.179 41.9249 162.358 42.0859 162.494 42.2912C162.634 42.4966 162.704 42.7626 162.704 43.0892C162.704 43.3926 162.627 43.6866 162.473 43.9712C162.323 44.2559 162.106 44.5079 161.822 44.7272C161.537 44.9512 161.187 45.1286 160.772 45.2592C160.361 45.3946 159.897 45.4622 159.379 45.4622C158.861 45.4622 158.408 45.4109 158.021 45.3082C157.633 45.2056 157.311 45.0679 157.055 44.8952C156.798 44.7226 156.604 44.5219 156.474 44.2932C156.348 44.0692 156.285 43.8336 156.285 43.5862C156.285 43.2362 156.394 42.9399 156.614 42.6972C156.833 42.4546 157.134 42.2609 157.517 42.1162C157.307 42.0229 157.139 41.8992 157.013 41.7452C156.891 41.5866 156.831 41.3742 156.831 41.1082C156.831 41.0056 156.849 40.9006 156.887 40.7932C156.924 40.6812 156.98 40.5716 157.055 40.4642C157.134 40.3522 157.23 40.2472 157.342 40.1492C157.454 40.0512 157.584 39.9649 157.734 39.8902C157.384 39.6942 157.111 39.4352 156.915 39.1132C156.719 38.7866 156.621 38.4086 156.621 37.9792C156.621 37.6339 156.686 37.3212 156.817 37.0412C156.952 36.7566 157.139 36.5162 157.377 36.3202C157.615 36.1196 157.897 35.9656 158.224 35.8582C158.555 35.7509 158.917 35.6972 159.309 35.6972C159.617 35.6972 159.904 35.7322 160.17 35.8022C160.436 35.8676 160.678 35.9656 160.898 36.0962H162.823Z" fill="#4F4F4F"/>
<path d="M280.574 40.8352C280.649 40.8352 280.714 40.8656 280.77 40.9262L281.309 41.5072C280.898 41.9832 280.399 42.3542 279.811 42.6202C279.228 42.8862 278.521 43.0192 277.69 43.0192C276.971 43.0192 276.318 42.8956 275.73 42.6482C275.142 42.3962 274.64 42.0462 274.225 41.5982C273.81 41.1456 273.488 40.6042 273.259 39.9742C273.03 39.3442 272.916 38.6512 272.916 37.8952C272.916 37.1392 273.035 36.4462 273.273 35.8162C273.511 35.1862 273.845 34.6449 274.274 34.1922C274.708 33.7396 275.226 33.3896 275.828 33.1422C276.43 32.8902 277.095 32.7642 277.823 32.7642C278.537 32.7642 279.167 32.8786 279.713 33.1072C280.259 33.3359 280.74 33.6462 281.155 34.0382L280.707 34.6612C280.679 34.7079 280.642 34.7476 280.595 34.7802C280.553 34.8082 280.495 34.8222 280.42 34.8222C280.336 34.8222 280.233 34.7779 280.112 34.6892C279.991 34.5959 279.832 34.4932 279.636 34.3812C279.44 34.2692 279.195 34.1689 278.901 34.0802C278.607 33.9869 278.245 33.9402 277.816 33.9402C277.298 33.9402 276.824 34.0312 276.395 34.2132C275.966 34.3906 275.595 34.6496 275.282 34.9902C274.974 35.3309 274.734 35.7462 274.561 36.2362C274.388 36.7262 274.302 37.2792 274.302 37.8952C274.302 38.5206 274.391 39.0782 274.568 39.5682C274.75 40.0582 274.995 40.4736 275.303 40.8142C275.616 41.1502 275.982 41.4069 276.402 41.5842C276.827 41.7616 277.284 41.8502 277.774 41.8502C278.073 41.8502 278.341 41.8339 278.579 41.8012C278.822 41.7639 279.043 41.7079 279.244 41.6332C279.449 41.5586 279.638 41.4652 279.811 41.3532C279.988 41.2366 280.163 41.0989 280.336 40.9402C280.415 40.8702 280.495 40.8352 280.574 40.8352ZM283.878 32.5962V42.9072H282.632V32.5962H283.878ZM287.214 35.8162V42.9072H285.968V35.8162H287.214ZM287.48 33.5902C287.48 33.7116 287.454 33.8259 287.403 33.9332C287.356 34.0359 287.291 34.1292 287.207 34.2132C287.128 34.2926 287.032 34.3556 286.92 34.4022C286.813 34.4489 286.698 34.4722 286.577 34.4722C286.456 34.4722 286.341 34.4489 286.234 34.4022C286.131 34.3556 286.04 34.2926 285.961 34.2132C285.882 34.1292 285.819 34.0359 285.772 33.9332C285.725 33.8259 285.702 33.7116 285.702 33.5902C285.702 33.4689 285.725 33.3546 285.772 33.2472C285.819 33.1352 285.882 33.0396 285.961 32.9602C286.04 32.8762 286.131 32.8109 286.234 32.7642C286.341 32.7176 286.456 32.6942 286.577 32.6942C286.698 32.6942 286.813 32.7176 286.92 32.7642C287.032 32.8109 287.128 32.8762 287.207 32.9602C287.291 33.0396 287.356 33.1352 287.403 33.2472C287.454 33.3546 287.48 33.4689 287.48 33.5902ZM294.007 38.5882C294.007 38.2989 293.965 38.0352 293.881 37.7972C293.802 37.5546 293.683 37.3469 293.524 37.1742C293.37 36.9969 293.181 36.8616 292.957 36.7682C292.733 36.6702 292.479 36.6212 292.194 36.6212C291.597 36.6212 291.123 36.7962 290.773 37.1462C290.428 37.4916 290.213 37.9722 290.129 38.5882H294.007ZM295.015 41.9132C294.861 42.0999 294.677 42.2632 294.462 42.4032C294.248 42.5386 294.017 42.6506 293.769 42.7392C293.527 42.8279 293.275 42.8932 293.013 42.9352C292.752 42.9819 292.493 43.0052 292.236 43.0052C291.746 43.0052 291.294 42.9236 290.878 42.7602C290.468 42.5922 290.111 42.3496 289.807 42.0322C289.509 41.7102 289.275 41.3136 289.107 40.8422C288.939 40.3709 288.855 39.8296 288.855 39.2182C288.855 38.7236 288.93 38.2616 289.079 37.8322C289.233 37.4029 289.453 37.0319 289.737 36.7192C290.022 36.4019 290.37 36.1546 290.78 35.9772C291.191 35.7952 291.653 35.7042 292.166 35.7042C292.591 35.7042 292.983 35.7766 293.342 35.9212C293.706 36.0612 294.019 36.2666 294.28 36.5372C294.546 36.8032 294.754 37.1346 294.903 37.5312C295.053 37.9232 295.127 38.3712 295.127 38.8752C295.127 39.0712 295.106 39.2019 295.064 39.2672C295.022 39.3326 294.943 39.3652 294.826 39.3652H290.087C290.101 39.8132 290.162 40.2029 290.269 40.5342C290.381 40.8656 290.535 41.1432 290.731 41.3672C290.927 41.5866 291.161 41.7522 291.431 41.8642C291.702 41.9716 292.005 42.0252 292.341 42.0252C292.654 42.0252 292.922 41.9902 293.146 41.9202C293.375 41.8456 293.571 41.7662 293.734 41.6822C293.898 41.5982 294.033 41.5212 294.14 41.4512C294.252 41.3766 294.348 41.3392 294.427 41.3392C294.53 41.3392 294.609 41.3789 294.665 41.4582L295.015 41.9132ZM297.834 36.8452C297.988 36.6726 298.151 36.5162 298.324 36.3762C298.497 36.2362 298.679 36.1172 298.87 36.0192C299.066 35.9166 299.271 35.8396 299.486 35.7882C299.705 35.7322 299.941 35.7042 300.193 35.7042C300.58 35.7042 300.921 35.7696 301.215 35.9002C301.514 36.0262 301.761 36.2082 301.957 36.4462C302.158 36.6796 302.309 36.9619 302.412 37.2932C302.515 37.6246 302.566 37.9909 302.566 38.3922V42.9072H301.313V38.3922C301.313 37.8556 301.189 37.4402 300.942 37.1462C300.699 36.8476 300.328 36.6982 299.829 36.6982C299.46 36.6982 299.115 36.7869 298.793 36.9642C298.476 37.1416 298.182 37.3819 297.911 37.6852V42.9072H296.658V35.8162H297.407C297.584 35.8162 297.694 35.9026 297.736 36.0752L297.834 36.8452ZM306.546 43.0192C305.986 43.0192 305.554 42.8629 305.251 42.5502C304.952 42.2376 304.803 41.7872 304.803 41.1992V36.8592H303.949C303.874 36.8592 303.811 36.8382 303.76 36.7962C303.709 36.7496 303.683 36.6796 303.683 36.5862V36.0892L304.845 35.9422L305.132 33.7512C305.146 33.6812 305.176 33.6252 305.223 33.5832C305.274 33.5366 305.34 33.5132 305.419 33.5132H306.049V35.9562H308.1V36.8592H306.049V41.1152C306.049 41.4139 306.121 41.6356 306.266 41.7802C306.411 41.9249 306.597 41.9972 306.826 41.9972C306.957 41.9972 307.069 41.9809 307.162 41.9482C307.26 41.9109 307.344 41.8712 307.414 41.8292C307.484 41.7872 307.542 41.7499 307.589 41.7172C307.64 41.6799 307.685 41.6612 307.722 41.6612C307.787 41.6612 307.846 41.7009 307.897 41.7802L308.261 42.3752C308.046 42.5759 307.787 42.7346 307.484 42.8512C307.181 42.9632 306.868 43.0192 306.546 43.0192ZM313.516 36.9852C313.46 37.0879 313.374 37.1392 313.257 37.1392C313.187 37.1392 313.108 37.1136 313.019 37.0622C312.931 37.0109 312.821 36.9549 312.69 36.8942C312.564 36.8289 312.413 36.7706 312.235 36.7192C312.058 36.6632 311.848 36.6352 311.605 36.6352C311.395 36.6352 311.206 36.6632 311.038 36.7192C310.87 36.7706 310.726 36.8429 310.604 36.9362C310.488 37.0296 310.397 37.1392 310.331 37.2652C310.271 37.3866 310.24 37.5196 310.24 37.6642C310.24 37.8462 310.292 37.9979 310.394 38.1192C310.502 38.2406 310.642 38.3456 310.814 38.4342C310.987 38.5229 311.183 38.6022 311.402 38.6722C311.622 38.7376 311.846 38.8099 312.074 38.8892C312.308 38.9639 312.534 39.0479 312.753 39.1412C312.973 39.2346 313.169 39.3512 313.341 39.4912C313.514 39.6312 313.652 39.8039 313.754 40.0092C313.862 40.2099 313.915 40.4526 313.915 40.7372C313.915 41.0639 313.857 41.3672 313.74 41.6472C313.624 41.9226 313.451 42.1629 313.222 42.3682C312.994 42.5689 312.714 42.7276 312.382 42.8442C312.051 42.9609 311.668 43.0192 311.234 43.0192C310.74 43.0192 310.292 42.9399 309.89 42.7812C309.489 42.6179 309.148 42.4102 308.868 42.1582L309.162 41.6822C309.2 41.6216 309.244 41.5749 309.295 41.5422C309.347 41.5096 309.412 41.4932 309.491 41.4932C309.575 41.4932 309.664 41.5259 309.757 41.5912C309.851 41.6566 309.963 41.7289 310.093 41.8082C310.229 41.8876 310.392 41.9599 310.583 42.0252C310.775 42.0906 311.013 42.1232 311.297 42.1232C311.54 42.1232 311.752 42.0929 311.934 42.0322C312.116 41.9669 312.268 41.8806 312.389 41.7732C312.511 41.6659 312.599 41.5422 312.655 41.4022C312.716 41.2622 312.746 41.1129 312.746 40.9542C312.746 40.7582 312.693 40.5972 312.585 40.4712C312.483 40.3406 312.345 40.2309 312.172 40.1422C312 40.0489 311.801 39.9696 311.577 39.9042C311.358 39.8342 311.132 39.7619 310.898 39.6872C310.67 39.6126 310.443 39.5286 310.219 39.4352C310 39.3372 309.804 39.2159 309.631 39.0712C309.459 38.9266 309.319 38.7492 309.211 38.5392C309.109 38.3246 309.057 38.0656 309.057 37.7622C309.057 37.4916 309.113 37.2326 309.225 36.9852C309.337 36.7332 309.501 36.5139 309.715 36.3272C309.93 36.1359 310.194 35.9842 310.506 35.8722C310.819 35.7602 311.176 35.7042 311.577 35.7042C312.044 35.7042 312.462 35.7789 312.83 35.9282C313.204 36.0729 313.526 36.2736 313.796 36.5302L313.516 36.9852Z" fill="#4F4F4F"/>
<path d="M231.996 19.2142C228.098 19.2142 224.924 16.0513 224.924 12.1659C224.924 8.28058 228.098 5.12573 231.996 5.12573C235.894 5.12573 239.068 8.2886 239.068 12.1739C239.068 16.0593 235.894 19.2221 231.996 19.2221V19.2142ZM231.996 7.02025C229.145 7.02025 226.833 9.33219 226.833 12.1659C226.833 14.9997 229.153 17.3116 231.996 17.3116C234.839 17.3116 237.159 14.9997 237.159 12.1659C237.159 9.33219 234.839 7.02025 231.996 7.02025Z" fill="#4F4F4F"/>
<path d="M246.945 19.2147C244.545 19.2147 242.596 17.272 242.596 14.8798C242.596 12.4875 244.545 10.5449 246.945 10.5449C249.345 10.5449 251.294 12.4875 251.294 14.8798C251.294 17.272 249.345 19.2147 246.945 19.2147ZM246.945 12.4394C245.6 12.4394 244.497 13.5312 244.497 14.8798C244.497 16.2285 245.592 17.3202 246.945 17.3202C248.298 17.3202 249.394 16.2285 249.394 14.8798C249.394 13.5312 248.298 12.4394 246.945 12.4394Z" fill="#4F4F4F"/>
<path d="M223.507 42.2455C222.145 42.2455 220.977 41.1859 220.865 39.8293L220.841 39.5322H212.746C211.546 39.5322 210.571 38.5609 210.571 37.3728V28.125C210.571 25.1548 213.012 22.7305 216.016 22.7305H217.989C220.108 22.7305 222.049 23.9667 222.935 25.8773L223.136 26.3107L223.466 25.9576C225.351 23.9025 228.025 22.7305 230.812 22.7305H233.188C235.967 22.7305 238.649 23.9025 240.533 25.9576L240.864 26.3107L241.065 25.8773C241.951 23.9667 243.892 22.7305 246.01 22.7305H247.984C250.988 22.7305 253.428 25.1468 253.428 28.125V37.2845C253.428 38.5207 252.414 39.5322 251.165 39.5322H243.167L243.143 39.8293C243.022 41.1859 241.862 42.2455 240.501 42.2455H223.507ZM230.812 24.633C226.374 24.633 222.757 28.2374 222.757 32.6606V39.5964C222.757 40.0058 223.096 40.343 223.507 40.343H240.493C240.904 40.343 241.242 40.0058 241.242 39.5964V32.6606C241.242 28.2374 237.626 24.633 233.188 24.633H230.812ZM246.01 24.633C244.061 24.633 242.466 26.1984 242.466 28.125V29.0562L242.491 29.1124C243.183 30.9186 243.175 32.0986 243.159 35.2455C243.159 35.8556 243.151 36.5379 243.151 37.3086V37.6297H249.772C250.851 37.6297 251.423 37.5681 251.487 37.445L251.576 37.2765L251.52 37.1882V28.117C251.52 26.1903 249.933 24.625 247.976 24.625H246.002L246.01 24.633ZM216.024 24.633C214.075 24.633 212.48 26.1984 212.48 28.125V37.6377H220.849V37.3165C220.849 36.5459 220.849 35.8636 220.841 35.2535C220.816 32.0986 220.808 30.9186 221.509 29.1124L221.533 29.0562V28.125C221.533 26.1984 219.947 24.633 217.989 24.633H216.016H216.024Z" fill="#4F4F4F"/>
<path d="M217.047 19.2147C214.647 19.2147 212.698 17.272 212.698 14.8798C212.698 12.4875 214.647 10.5449 217.047 10.5449C219.447 10.5449 221.396 12.4875 221.396 14.8798C221.396 17.272 219.447 19.2147 217.047 19.2147ZM217.047 12.4394C215.702 12.4394 214.599 13.5312 214.599 14.8798C214.599 16.2285 215.694 17.3202 217.047 17.3202C218.4 17.3202 219.496 16.2285 219.496 14.8798C219.496 13.5312 218.4 12.4394 217.047 12.4394Z" fill="#4F4F4F"/>
<path d="M476.741 33.9822V37.4892H480.864V38.5952H476.741V42.9072H475.383V32.8762H481.564V33.9822H476.741ZM484.293 35.8162V42.9072H483.047V35.8162H484.293ZM484.559 33.5902C484.559 33.7116 484.534 33.8259 484.482 33.9332C484.436 34.0359 484.37 34.1292 484.286 34.2132C484.207 34.2926 484.111 34.3556 483.999 34.4022C483.892 34.4489 483.778 34.4722 483.656 34.4722C483.535 34.4722 483.421 34.4489 483.313 34.4022C483.211 34.3556 483.12 34.2926 483.04 34.2132C482.961 34.1292 482.898 34.0359 482.851 33.9332C482.805 33.8259 482.781 33.7116 482.781 33.5902C482.781 33.4689 482.805 33.3546 482.851 33.2472C482.898 33.1352 482.961 33.0396 483.04 32.9602C483.12 32.8762 483.211 32.8109 483.313 32.7642C483.421 32.7176 483.535 32.6942 483.656 32.6942C483.778 32.6942 483.892 32.7176 483.999 32.7642C484.111 32.8109 484.207 32.8762 484.286 32.9602C484.37 33.0396 484.436 33.1352 484.482 33.2472C484.534 33.3546 484.559 33.4689 484.559 33.5902ZM487.517 36.8452C487.671 36.6726 487.834 36.5162 488.007 36.3762C488.179 36.2362 488.361 36.1172 488.553 36.0192C488.749 35.9166 488.954 35.8396 489.169 35.7882C489.388 35.7322 489.624 35.7042 489.876 35.7042C490.263 35.7042 490.604 35.7696 490.898 35.9002C491.196 36.0262 491.444 36.2082 491.64 36.4462C491.84 36.6796 491.992 36.9619 492.095 37.2932C492.197 37.6246 492.249 37.9909 492.249 38.3922V42.9072H490.996V38.3922C490.996 37.8556 490.872 37.4402 490.625 37.1462C490.382 36.8476 490.011 36.6982 489.512 36.6982C489.143 36.6982 488.798 36.7869 488.476 36.9642C488.158 37.1416 487.864 37.3819 487.594 37.6852V42.9072H486.341V35.8162H487.09C487.267 35.8162 487.377 35.9026 487.419 36.0752L487.517 36.8452ZM497.99 39.7152C497.416 39.7339 496.926 39.7806 496.52 39.8552C496.119 39.9252 495.79 40.0186 495.533 40.1352C495.281 40.2519 495.097 40.3896 494.98 40.5482C494.868 40.7069 494.812 40.8842 494.812 41.0802C494.812 41.2669 494.842 41.4279 494.903 41.5632C494.964 41.6986 495.045 41.8106 495.148 41.8992C495.255 41.9832 495.379 42.0462 495.519 42.0882C495.664 42.1256 495.818 42.1442 495.981 42.1442C496.2 42.1442 496.401 42.1232 496.583 42.0812C496.765 42.0346 496.935 41.9692 497.094 41.8852C497.257 41.8012 497.411 41.7009 497.556 41.5842C497.705 41.4676 497.85 41.3346 497.99 41.1852V39.7152ZM493.965 36.8172C494.357 36.4392 494.779 36.1569 495.232 35.9702C495.685 35.7836 496.186 35.6902 496.737 35.6902C497.134 35.6902 497.486 35.7556 497.794 35.8862C498.102 36.0169 498.361 36.1989 498.571 36.4322C498.781 36.6656 498.94 36.9479 499.047 37.2792C499.154 37.6106 499.208 37.9746 499.208 38.3712V42.9072H498.655C498.534 42.9072 498.44 42.8886 498.375 42.8512C498.31 42.8092 498.258 42.7299 498.221 42.6132L498.081 41.9412C497.894 42.1139 497.712 42.2679 497.535 42.4032C497.358 42.5339 497.171 42.6459 496.975 42.7392C496.779 42.8279 496.569 42.8956 496.345 42.9422C496.126 42.9936 495.881 43.0192 495.61 43.0192C495.335 43.0192 495.076 42.9819 494.833 42.9072C494.59 42.8279 494.378 42.7112 494.196 42.5572C494.019 42.4032 493.876 42.2096 493.769 41.9762C493.666 41.7382 493.615 41.4582 493.615 41.1362C493.615 40.8562 493.692 40.5879 493.846 40.3312C494 40.0699 494.25 39.8389 494.595 39.6382C494.94 39.4376 495.391 39.2742 495.946 39.1482C496.501 39.0176 497.183 38.9429 497.99 38.9242V38.3712C497.99 37.8206 497.871 37.4052 497.633 37.1252C497.395 36.8406 497.047 36.6982 496.59 36.6982C496.282 36.6982 496.023 36.7379 495.813 36.8172C495.608 36.8919 495.428 36.9782 495.274 37.0762C495.125 37.1696 494.994 37.2559 494.882 37.3352C494.775 37.4099 494.667 37.4472 494.56 37.4472C494.476 37.4472 494.404 37.4262 494.343 37.3842C494.282 37.3376 494.231 37.2816 494.189 37.2162L493.965 36.8172ZM502.282 36.8452C502.436 36.6726 502.599 36.5162 502.772 36.3762C502.945 36.2362 503.127 36.1172 503.318 36.0192C503.514 35.9166 503.719 35.8396 503.934 35.7882C504.153 35.7322 504.389 35.7042 504.641 35.7042C505.028 35.7042 505.369 35.7696 505.663 35.9002C505.962 36.0262 506.209 36.2082 506.405 36.4462C506.606 36.6796 506.757 36.9619 506.86 37.2932C506.963 37.6246 507.014 37.9909 507.014 38.3922V42.9072H505.761V38.3922C505.761 37.8556 505.637 37.4402 505.39 37.1462C505.147 36.8476 504.776 36.6982 504.277 36.6982C503.908 36.6982 503.563 36.7869 503.241 36.9642C502.924 37.1416 502.63 37.3819 502.359 37.6852V42.9072H501.106V35.8162H501.855C502.032 35.8162 502.142 35.9026 502.184 36.0752L502.282 36.8452ZM513.848 37.0762C513.81 37.1276 513.773 37.1672 513.736 37.1952C513.698 37.2232 513.647 37.2372 513.582 37.2372C513.512 37.2372 513.435 37.2092 513.351 37.1532C513.267 37.0926 513.162 37.0272 513.036 36.9572C512.914 36.8872 512.763 36.8242 512.581 36.7682C512.403 36.7076 512.184 36.6772 511.923 36.6772C511.573 36.6772 511.265 36.7402 510.999 36.8662C510.733 36.9876 510.509 37.1649 510.327 37.3982C510.149 37.6316 510.014 37.9139 509.921 38.2452C509.832 38.5766 509.788 38.9476 509.788 39.3582C509.788 39.7876 509.837 40.1702 509.935 40.5062C510.033 40.8376 510.17 41.1176 510.348 41.3462C510.53 41.5702 510.747 41.7429 510.999 41.8642C511.255 41.9809 511.542 42.0392 511.86 42.0392C512.163 42.0392 512.413 42.0042 512.609 41.9342C512.805 41.8596 512.966 41.7779 513.092 41.6892C513.222 41.6006 513.33 41.5212 513.414 41.4512C513.502 41.3766 513.589 41.3392 513.673 41.3392C513.775 41.3392 513.855 41.3789 513.911 41.4582L514.261 41.9132C514.107 42.1046 513.932 42.2679 513.736 42.4032C513.54 42.5386 513.327 42.6529 513.099 42.7462C512.875 42.8349 512.639 42.9002 512.392 42.9422C512.144 42.9842 511.892 43.0052 511.636 43.0052C511.192 43.0052 510.779 42.9236 510.397 42.7602C510.019 42.5969 509.69 42.3612 509.41 42.0532C509.13 41.7406 508.91 41.3579 508.752 40.9052C508.593 40.4526 508.514 39.9369 508.514 39.3582C508.514 38.8309 508.586 38.3432 508.731 37.8952C508.88 37.4472 509.095 37.0622 509.375 36.7402C509.659 36.4136 510.007 36.1592 510.418 35.9772C510.833 35.7952 511.309 35.7042 511.846 35.7042C512.345 35.7042 512.784 35.7859 513.162 35.9492C513.544 36.1079 513.883 36.3342 514.177 36.6282L513.848 37.0762ZM516.914 35.8162V42.9072H515.668V35.8162H516.914ZM517.18 33.5902C517.18 33.7116 517.155 33.8259 517.103 33.9332C517.057 34.0359 516.991 34.1292 516.907 34.2132C516.828 34.2926 516.732 34.3556 516.62 34.4022C516.513 34.4489 516.399 34.4722 516.277 34.4722C516.156 34.4722 516.042 34.4489 515.934 34.4022C515.832 34.3556 515.741 34.2926 515.661 34.2132C515.582 34.1292 515.519 34.0359 515.472 33.9332C515.426 33.8259 515.402 33.7116 515.402 33.5902C515.402 33.4689 515.426 33.3546 515.472 33.2472C515.519 33.1352 515.582 33.0396 515.661 32.9602C515.741 32.8762 515.832 32.8109 515.934 32.7642C516.042 32.7176 516.156 32.6942 516.277 32.6942C516.399 32.6942 516.513 32.7176 516.62 32.7642C516.732 32.8109 516.828 32.8762 516.907 32.9602C516.991 33.0396 517.057 33.1352 517.103 33.2472C517.155 33.3546 517.18 33.4689 517.18 33.5902ZM522.805 39.7152C522.231 39.7339 521.741 39.7806 521.335 39.8552C520.933 39.9252 520.604 40.0186 520.348 40.1352C520.096 40.2519 519.911 40.3896 519.795 40.5482C519.683 40.7069 519.627 40.8842 519.627 41.0802C519.627 41.2669 519.657 41.4279 519.718 41.5632C519.778 41.6986 519.86 41.8106 519.963 41.8992C520.07 41.9832 520.194 42.0462 520.334 42.0882C520.478 42.1256 520.632 42.1442 520.796 42.1442C521.015 42.1442 521.216 42.1232 521.398 42.0812C521.58 42.0346 521.75 41.9692 521.909 41.8852C522.072 41.8012 522.226 41.7009 522.371 41.5842C522.52 41.4676 522.665 41.3346 522.805 41.1852V39.7152ZM518.78 36.8172C519.172 36.4392 519.594 36.1569 520.047 35.9702C520.499 35.7836 521.001 35.6902 521.552 35.6902C521.948 35.6902 522.301 35.7556 522.609 35.8862C522.917 36.0169 523.176 36.1989 523.386 36.4322C523.596 36.6656 523.754 36.9479 523.862 37.2792C523.969 37.6106 524.023 37.9746 524.023 38.3712V42.9072H523.47C523.348 42.9072 523.255 42.8886 523.19 42.8512C523.124 42.8092 523.073 42.7299 523.036 42.6132L522.896 41.9412C522.709 42.1139 522.527 42.2679 522.35 42.4032C522.172 42.5339 521.986 42.6459 521.79 42.7392C521.594 42.8279 521.384 42.8956 521.16 42.9422C520.94 42.9936 520.695 43.0192 520.425 43.0192C520.149 43.0192 519.89 42.9819 519.648 42.9072C519.405 42.8279 519.193 42.7112 519.011 42.5572C518.833 42.4032 518.691 42.2096 518.584 41.9762C518.481 41.7382 518.43 41.4582 518.43 41.1362C518.43 40.8562 518.507 40.5879 518.661 40.3312C518.815 40.0699 519.064 39.8389 519.41 39.6382C519.755 39.4376 520.205 39.2742 520.761 39.1482C521.316 39.0176 521.997 38.9429 522.805 38.9242V38.3712C522.805 37.8206 522.686 37.4052 522.448 37.1252C522.21 36.8406 521.862 36.6982 521.405 36.6982C521.097 36.6982 520.838 36.7379 520.628 36.8172C520.422 36.8919 520.243 36.9782 520.089 37.0762C519.939 37.1696 519.809 37.2559 519.697 37.3352C519.589 37.4099 519.482 37.4472 519.375 37.4472C519.291 37.4472 519.218 37.4262 519.158 37.3842C519.097 37.3376 519.046 37.2816 519.004 37.2162L518.78 36.8172ZM527.209 32.5962V42.9072H525.963V32.5962H527.209ZM538.236 34.4442C538.194 34.5142 538.148 34.5679 538.096 34.6052C538.05 34.6379 537.991 34.6542 537.921 34.6542C537.842 34.6542 537.749 34.6146 537.641 34.5352C537.534 34.4559 537.399 34.3696 537.235 34.2762C537.077 34.1782 536.883 34.0896 536.654 34.0102C536.43 33.9309 536.157 33.8912 535.835 33.8912C535.532 33.8912 535.264 33.9332 535.03 34.0172C534.802 34.0966 534.608 34.2062 534.449 34.3462C534.295 34.4862 534.179 34.6519 534.099 34.8432C534.02 35.0299 533.98 35.2329 533.98 35.4522C533.98 35.7322 534.048 35.9656 534.183 36.1522C534.323 36.3342 534.505 36.4906 534.729 36.6212C534.958 36.7519 535.215 36.8662 535.499 36.9642C535.789 37.0576 536.083 37.1556 536.381 37.2582C536.685 37.3609 536.979 37.4776 537.263 37.6082C537.553 37.7342 537.809 37.8952 538.033 38.0912C538.262 38.2872 538.444 38.5276 538.579 38.8122C538.719 39.0969 538.789 39.4469 538.789 39.8622C538.789 40.3009 538.715 40.7139 538.565 41.1012C538.416 41.4839 538.197 41.8176 537.907 42.1022C537.623 42.3869 537.27 42.6109 536.85 42.7742C536.435 42.9376 535.961 43.0192 535.429 43.0192C534.776 43.0192 534.183 42.9026 533.651 42.6692C533.119 42.4312 532.664 42.1116 532.286 41.7102L532.678 41.0662C532.716 41.0149 532.76 40.9729 532.811 40.9402C532.867 40.9029 532.928 40.8842 532.993 40.8842C533.054 40.8842 533.122 40.9099 533.196 40.9612C533.276 41.0079 533.364 41.0686 533.462 41.1432C533.56 41.2179 533.672 41.2996 533.798 41.3882C533.924 41.4769 534.067 41.5586 534.225 41.6332C534.389 41.7079 534.573 41.7709 534.778 41.8222C534.984 41.8689 535.215 41.8922 535.471 41.8922C535.793 41.8922 536.08 41.8479 536.332 41.7592C536.584 41.6706 536.797 41.5469 536.969 41.3882C537.147 41.2249 537.282 41.0312 537.375 40.8072C537.469 40.5832 537.515 40.3336 537.515 40.0582C537.515 39.7549 537.445 39.5076 537.305 39.3162C537.17 39.1202 536.99 38.9569 536.766 38.8262C536.542 38.6956 536.286 38.5859 535.996 38.4972C535.707 38.4039 535.413 38.3106 535.114 38.2172C534.816 38.1192 534.522 38.0072 534.232 37.8812C533.943 37.7552 533.686 37.5919 533.462 37.3912C533.238 37.1906 533.056 36.9409 532.916 36.6422C532.781 36.3389 532.713 35.9656 532.713 35.5222C532.713 35.1676 532.781 34.8246 532.916 34.4932C533.056 34.1619 533.257 33.8679 533.518 33.6112C533.784 33.3546 534.109 33.1492 534.491 32.9952C534.879 32.8412 535.322 32.7642 535.821 32.7642C536.381 32.7642 536.89 32.8529 537.347 33.0302C537.809 33.2076 538.215 33.4642 538.565 33.8002L538.236 34.4442ZM542.275 43.0192C541.715 43.0192 541.284 42.8629 540.98 42.5502C540.682 42.2376 540.532 41.7872 540.532 41.1992V36.8592H539.678C539.604 36.8592 539.541 36.8382 539.489 36.7962C539.438 36.7496 539.412 36.6796 539.412 36.5862V36.0892L540.574 35.9422L540.861 33.7512C540.875 33.6812 540.906 33.6252 540.952 33.5832C541.004 33.5366 541.069 33.5132 541.148 33.5132H541.778V35.9562H543.829V36.8592H541.778V41.1152C541.778 41.4139 541.851 41.6356 541.995 41.7802C542.14 41.9249 542.327 41.9972 542.555 41.9972C542.686 41.9972 542.798 41.9809 542.891 41.9482C542.989 41.9109 543.073 41.8712 543.143 41.8292C543.213 41.7872 543.272 41.7499 543.318 41.7172C543.37 41.6799 543.414 41.6612 543.451 41.6612C543.517 41.6612 543.575 41.7009 543.626 41.7802L543.99 42.3752C543.776 42.5759 543.517 42.7346 543.213 42.8512C542.91 42.9632 542.597 43.0192 542.275 43.0192ZM548.959 39.7152C548.385 39.7339 547.895 39.7806 547.489 39.8552C547.088 39.9252 546.759 40.0186 546.502 40.1352C546.25 40.2519 546.066 40.3896 545.949 40.5482C545.837 40.7069 545.781 40.8842 545.781 41.0802C545.781 41.2669 545.811 41.4279 545.872 41.5632C545.933 41.6986 546.014 41.8106 546.117 41.8992C546.224 41.9832 546.348 42.0462 546.488 42.0882C546.633 42.1256 546.787 42.1442 546.95 42.1442C547.169 42.1442 547.37 42.1232 547.552 42.0812C547.734 42.0346 547.904 41.9692 548.063 41.8852C548.226 41.8012 548.38 41.7009 548.525 41.5842C548.674 41.4676 548.819 41.3346 548.959 41.1852V39.7152ZM544.934 36.8172C545.326 36.4392 545.748 36.1569 546.201 35.9702C546.654 35.7836 547.155 35.6902 547.706 35.6902C548.103 35.6902 548.455 35.7556 548.763 35.8862C549.071 36.0169 549.33 36.1989 549.54 36.4322C549.75 36.6656 549.909 36.9479 550.016 37.2792C550.123 37.6106 550.177 37.9746 550.177 38.3712V42.9072H549.624C549.503 42.9072 549.409 42.8886 549.344 42.8512C549.279 42.8092 549.227 42.7299 549.19 42.6132L549.05 41.9412C548.863 42.1139 548.681 42.2679 548.504 42.4032C548.327 42.5339 548.14 42.6459 547.944 42.7392C547.748 42.8279 547.538 42.8956 547.314 42.9422C547.095 42.9936 546.85 43.0192 546.579 43.0192C546.304 43.0192 546.045 42.9819 545.802 42.9072C545.559 42.8279 545.347 42.7112 545.165 42.5572C544.988 42.4032 544.845 42.2096 544.738 41.9762C544.635 41.7382 544.584 41.4582 544.584 41.1362C544.584 40.8562 544.661 40.5879 544.815 40.3312C544.969 40.0699 545.219 39.8389 545.564 39.6382C545.909 39.4376 546.36 39.2742 546.915 39.1482C547.47 39.0176 548.152 38.9429 548.959 38.9242V38.3712C548.959 37.8206 548.84 37.4052 548.602 37.1252C548.364 36.8406 548.016 36.6982 547.559 36.6982C547.251 36.6982 546.992 36.7379 546.782 36.8172C546.577 36.8919 546.397 36.9782 546.243 37.0762C546.094 37.1696 545.963 37.2559 545.851 37.3352C545.744 37.4099 545.636 37.4472 545.529 37.4472C545.445 37.4472 545.373 37.4262 545.312 37.3842C545.251 37.3376 545.2 37.2816 545.158 37.2162L544.934 36.8172ZM553.328 41.1992C553.557 41.5072 553.806 41.7242 554.077 41.8502C554.352 41.9762 554.653 42.0392 554.98 42.0392C555.647 42.0392 556.158 41.8036 556.513 41.3322C556.868 40.8609 557.045 40.1586 557.045 39.2252C557.045 38.3572 556.886 37.7202 556.569 37.3142C556.256 36.9036 555.808 36.6982 555.225 36.6982C554.819 36.6982 554.464 36.7916 554.161 36.9782C553.862 37.1649 553.585 37.4286 553.328 37.7692V41.1992ZM553.328 36.8382C553.627 36.4929 553.963 36.2176 554.336 36.0122C554.714 35.8069 555.148 35.7042 555.638 35.7042C556.053 35.7042 556.427 35.7836 556.758 35.9422C557.094 36.1009 557.379 36.3319 557.612 36.6352C557.845 36.9339 558.023 37.2979 558.144 37.7272C558.27 38.1566 558.333 38.6396 558.333 39.1762C558.333 39.7502 558.263 40.2729 558.123 40.7442C557.983 41.2156 557.78 41.6192 557.514 41.9552C557.253 42.2866 556.933 42.5456 556.555 42.7322C556.177 42.9142 555.752 43.0052 555.281 43.0052C554.814 43.0052 554.42 42.9189 554.098 42.7462C553.781 42.5689 553.503 42.3192 553.265 41.9972L553.202 42.6412C553.165 42.8186 553.057 42.9072 552.88 42.9072H552.075V32.5962H553.328V36.8382ZM561.225 35.8162V42.9072H559.979V35.8162H561.225ZM561.491 33.5902C561.491 33.7116 561.465 33.8259 561.414 33.9332C561.367 34.0359 561.302 34.1292 561.218 34.2132C561.139 34.2926 561.043 34.3556 560.931 34.4022C560.824 34.4489 560.709 34.4722 560.588 34.4722C560.467 34.4722 560.352 34.4489 560.245 34.4022C560.142 34.3556 560.051 34.2926 559.972 34.2132C559.893 34.1292 559.83 34.0359 559.783 33.9332C559.736 33.8259 559.713 33.7116 559.713 33.5902C559.713 33.4689 559.736 33.3546 559.783 33.2472C559.83 33.1352 559.893 33.0396 559.972 32.9602C560.051 32.8762 560.142 32.8109 560.245 32.7642C560.352 32.7176 560.467 32.6942 560.588 32.6942C560.709 32.6942 560.824 32.7176 560.931 32.7642C561.043 32.8109 561.139 32.8762 561.218 32.9602C561.302 33.0396 561.367 33.1352 561.414 33.2472C561.465 33.3546 561.491 33.4689 561.491 33.5902ZM564.56 32.5962V42.9072H563.314V32.5962H564.56ZM567.897 35.8162V42.9072H566.651V35.8162H567.897ZM568.163 33.5902C568.163 33.7116 568.137 33.8259 568.086 33.9332C568.039 34.0359 567.974 34.1292 567.89 34.2132C567.81 34.2926 567.715 34.3556 567.603 34.4022C567.495 34.4489 567.381 34.4722 567.26 34.4722C567.138 34.4722 567.024 34.4489 566.917 34.4022C566.814 34.3556 566.723 34.2926 566.644 34.2132C566.564 34.1292 566.501 34.0359 566.455 33.9332C566.408 33.8259 566.385 33.7116 566.385 33.5902C566.385 33.4689 566.408 33.3546 566.455 33.2472C566.501 33.1352 566.564 33.0396 566.644 32.9602C566.723 32.8762 566.814 32.8109 566.917 32.7642C567.024 32.7176 567.138 32.6942 567.26 32.6942C567.381 32.6942 567.495 32.7176 567.603 32.7642C567.715 32.8109 567.81 32.8762 567.89 32.9602C567.974 33.0396 568.039 33.1352 568.086 33.2472C568.137 33.3546 568.163 33.4689 568.163 33.5902ZM572.121 43.0192C571.561 43.0192 571.129 42.8629 570.826 42.5502C570.527 42.2376 570.378 41.7872 570.378 41.1992V36.8592H569.524C569.449 36.8592 569.386 36.8382 569.335 36.7962C569.284 36.7496 569.258 36.6796 569.258 36.5862V36.0892L570.42 35.9422L570.707 33.7512C570.721 33.6812 570.751 33.6252 570.798 33.5832C570.849 33.5366 570.915 33.5132 570.994 33.5132H571.624V35.9562H573.675V36.8592H571.624V41.1152C571.624 41.4139 571.696 41.6356 571.841 41.7802C571.986 41.9249 572.172 41.9972 572.401 41.9972C572.532 41.9972 572.644 41.9809 572.737 41.9482C572.835 41.9109 572.919 41.8712 572.989 41.8292C573.059 41.7872 573.117 41.7499 573.164 41.7172C573.215 41.6799 573.26 41.6612 573.297 41.6612C573.362 41.6612 573.421 41.7009 573.472 41.7802L573.836 42.3752C573.621 42.5759 573.362 42.7346 573.059 42.8512C572.756 42.9632 572.443 43.0192 572.121 43.0192ZM581.08 35.8162L577.125 45.0002C577.083 45.0936 577.029 45.1682 576.964 45.2242C576.903 45.2802 576.807 45.3082 576.677 45.3082H575.753L577.048 42.4942L574.122 35.8162H575.2C575.307 35.8162 575.391 35.8442 575.452 35.9002C575.517 35.9516 575.561 36.0099 575.585 36.0752L577.482 40.5412C577.556 40.7372 577.619 40.9426 577.671 41.1572C577.736 40.9379 577.806 40.7302 577.881 40.5342L579.722 36.0752C579.75 36.0006 579.796 35.9399 579.862 35.8932C579.932 35.8419 580.009 35.8162 580.093 35.8162H581.08Z" fill="#4F4F4F"/>
<defs>
<linearGradient id="paint0_linear_10_36936" x1="70.3035" y1="-4.31864" x2="94.4391" y2="36.2562" gradientUnits="userSpaceOnUse">
<stop offset="0.1" stop-color="#FFA229"/>
<stop offset="0.68" stop-color="#1C4670"/>
</linearGradient>
<linearGradient id="paint1_linear_10_36936" x1="299.424" y1="-4.31864" x2="315.061" y2="45.7276" gradientUnits="userSpaceOnUse">
<stop offset="0.1" stop-color="#FFA229"/>
<stop offset="0.68" stop-color="#1C4670"/>
</linearGradient>
<linearGradient id="paint2_linear_10_36936" x1="505.424" y1="-4.31864" x2="521.061" y2="45.7276" gradientUnits="userSpaceOnUse">
<stop offset="0.1" stop-color="#FFA229"/>
<stop offset="0.68" stop-color="#1C4670"/>
</linearGradient>
</defs>
</svg>
