<svg width="80" height="16" viewBox="0 0 80 16" fill="none" xmlns="http://www.w3.org/2000/svg">
<g clip-path="url(#clip0_10_36971)">
<path d="M0.914185 15.3527H15.3964V0.889648H0.914185V15.3527Z" fill="#F2C94C"/>
<path d="M13.2597 7.0426L5.04555 13.0018L6.24415 9.31878L3.10657 7.0426H6.98477L8.18312 3.35938L9.38147 7.0426H13.2597ZM8.18342 10.7258L10.4267 10.2546L11.3205 13.0018L8.18342 10.7258Z" fill="white"/>
<path d="M16.918 15.3527H31.4002V0.889648H16.918V15.3527Z" fill="#F2C94C"/>
<path d="M16.918 15.3527H24.1591V0.889648H16.918V15.3527Z" fill="#F2C94C"/>
<path d="M24.3323 10.6697L26.2559 10.2545L27.1457 13.0641L24.129 10.8156L20.9946 13.0641L22.2111 9.36776L19.0264 7.08332H22.9628L24.1789 3.38672L25.3954 7.08332H29.3316L24.3323 10.6697Z" fill="white"/>
<path d="M32.933 15.3527H47.4152V0.889648H32.933V15.3527Z" fill="#F2C94C"/>
<path d="M32.933 15.3527H40.1741V0.889648H32.933V15.3527Z" fill="#F2C94C"/>
<path d="M45.279 7.0426L37.0648 13.0018L38.2634 9.31878L35.1259 7.0426H39.0041L40.2024 3.35938L41.4008 7.0426L45.279 7.0426ZM40.2027 10.7258L42.446 10.2546L43.3398 13.0018L40.2027 10.7258Z" fill="white"/>
<path d="M48.9478 15.3527H63.4299V0.889648H48.9478V15.3527Z" fill="#F2C94C"/>
<path d="M48.9478 15.3527H56.1889V0.889648H48.9478V15.3527Z" fill="#F2C94C"/>
<path d="M61.2933 7.0426L53.0794 13.0018L54.2777 9.31878L51.1401 7.0426H55.0183L56.2167 3.35938L57.415 7.0426L61.2933 7.0426ZM56.217 10.7258L58.4603 10.2546L59.3541 13.0018L56.217 10.7258Z" fill="white"/>
<path d="M64.9518 15.3527H79.434V0.889648H64.9518V15.3527Z" fill="#F2C94C"/>
<path d="M64.9518 15.3527H72.1929V0.889648H64.9518V15.3527Z" fill="#F2C94C"/>
<path d="M77.2973 7.0426L69.0834 13.0018L70.2818 9.31878L67.1442 7.0426H71.0224L72.2207 3.35938L73.4191 7.0426H77.2973ZM72.221 10.7258L74.4643 10.2546L75.3581 13.0018L72.221 10.7258Z" fill="white"/>
</g>
<defs>
<clipPath id="clip0_10_36971">
<rect width="78.41" height="14.36" fill="white" transform="translate(0.900391 0.889648)"/>
</clipPath>
</defs>
</svg>
